<?xml version="1.0" encoding="UTF-8"?>
<svg xmlns="http://www.w3.org/2000/svg" xmlns:xlink="http://www.w3.org/1999/xlink" width="958.499pt" height="520.5pt" viewBox="0 0 8115 4406" version="1.1">
<g>
<pattern id="pattern0" patternUnits="userSpaceOnUse" x="0" y="0" width="7" height="7">
<line x1="0" y1="3" x2="7" y2="3" style="fill:none; stroke:rgb(0,0,0); opacity:1" />
</pattern>
<clipPath id="cliprect0">
<rect x="1" y="-1" width="8113" height="4407" />
</clipPath>
<g clip-path="url(#cliprect0)">
<polyline style="fill:none; stroke:rgb(255,255,0); stroke-width:4; stroke-linecap:butt; stroke-linejoin:miter; stroke-dasharray:0; opacity:1" points="3629.97,3333.39 5081.88,3333.39 " />
<polyline style="fill:none; stroke:rgb(0,255,255); stroke-width:4; stroke-linecap:butt; stroke-linejoin:miter; stroke-dasharray:0; opacity:1" points="3629.97,3842.47 3645.58,3854.46 3661.19,3866.07 3676.8,3877.3 3692.42,3888.15 3708.03,3898.62 3723.64,3908.71 3739.25,3918.43 3754.86,3927.76 3770.48,3936.71 3786.09,3945.28 3801.7,3953.48 3817.31,3961.29 3832.92,3968.72 3848.54,3975.78 3864.15,3982.45 3879.76,3988.75 3895.37,3994.66 3910.98,4000.2 3926.59,4005.35 3942.21,4010.13 3957.82,4014.53 3973.43,4018.54 3989.04,4022.18 4004.65,4025.44 4020.27,4028.32 4035.88,4030.82 4051.49,4032.93 4067.1,4034.67 4082.71,4036.03 4098.33,4037.01 4113.94,4037.61 4129.55,4037.83 4145.16,4037.67 4160.77,4037.14 4176.39,4036.22 4192,4034.92 4207.61,4033.24 4223.22,4031.18 4238.83,4028.75 4254.44,4025.93 4270.06,4022.73 4285.67,4019.16 4301.28,4015.2 4316.89,4010.87 4332.5,4006.15 4348.12,4001.06 4363.73,3995.59 4379.34,3989.73 4394.95,3983.5 4410.56,3976.89 4426.18,3969.89 4441.79,3962.52 4457.4,3954.77 4473.01,3946.64 4488.62,3938.13 4504.23,3929.23 4519.85,3919.96 4535.46,3910.31 4551.07,3900.28 4566.68,3889.88 4582.29,3879.09 4597.91,3867.92 4613.52,3856.37 4629.13,3844.44 4644.74,3832.13 4660.35,3819.45 4675.97,3806.38 4691.58,3792.93 4707.19,3779.11 4722.8,3764.9 4738.41,3750.32 4754.03,3735.35 4769.64,3720.01 4785.25,3704.28 4800.86,3688.18 4816.47,3671.69 4832.08,3654.83 4847.7,3637.59 4863.31,3619.97 4878.92,3601.96 4894.53,3583.58 4910.14,3564.82 4925.76,3545.68 4941.37,3526.16 4956.98,3506.26 4972.59,3485.98 4988.2,3465.32 5003.82,3444.28 5019.43,3422.86 5035.04,3401.06 5050.65,3378.88 5066.26,3356.33 5081.88,3333.39 " />
<polyline style="fill:none; stroke:rgb(0,255,255); stroke-width:4; stroke-linecap:butt; stroke-linejoin:miter; stroke-dasharray:0; opacity:1" points="3629.97,3333.39 3629.97,3842.47 " />
<polyline style="fill:none; stroke:rgb(255,0,0); stroke-width:4; stroke-linecap:butt; stroke-linejoin:miter; stroke-dasharray:0; opacity:1" points="3659.51,3915.28 3670.06,3910 3685.88,3894.18 3685.88,4004.97 " />
<polyline style="fill:none; stroke:rgb(255,0,0); stroke-width:4; stroke-linecap:butt; stroke-linejoin:miter; stroke-dasharray:0; opacity:1" points="3733.35,3915.28 3743.9,3910 3759.73,3894.18 3759.73,4004.97 " />
<polyline style="fill:none; stroke:rgb(255,0,0); stroke-width:4; stroke-linecap:butt; stroke-linejoin:miter; stroke-dasharray:0; opacity:1" points="3817.75,3894.18 3875.77,3894.18 3844.13,3936.38 3859.95,3936.38 3870.5,3941.66 3875.77,3946.93 3881.05,3962.76 3881.05,3973.31 3875.77,3989.14 3865.22,3999.69 3849.4,4004.97 3833.58,4004.97 3817.75,3999.69 3812.48,3994.42 3807.2,3983.87 " />
<polyline style="fill:none; stroke:rgb(0,255,255); stroke-width:4; stroke-linecap:butt; stroke-linejoin:miter; stroke-dasharray:0; opacity:1" points="5081.88,3333.39 5081.88,3333.39 " />
<polyline style="fill:none; stroke:rgb(0,255,255); stroke-width:4; stroke-linecap:butt; stroke-linejoin:miter; stroke-dasharray:0; opacity:1" points="4130.81,3333.39 4130.81,4037.83 " />
<polyline style="fill:none; stroke:rgb(255,0,0); stroke-width:4; stroke-linecap:butt; stroke-linejoin:miter; stroke-dasharray:0; opacity:1" points="4006.86,4110.64 4017.41,4105.37 4033.23,4089.54 4033.23,4200.33 " />
<polyline style="fill:none; stroke:rgb(255,0,0); stroke-width:4; stroke-linecap:butt; stroke-linejoin:miter; stroke-dasharray:0; opacity:1" points="4144,4089.54 4091.25,4089.54 4085.98,4137.02 4091.25,4131.74 4107.08,4126.47 4122.9,4126.47 4138.73,4131.74 4149.28,4142.3 4154.55,4158.12 4154.55,4168.68 4149.28,4184.5 4138.73,4195.06 4122.9,4200.33 4107.08,4200.33 4091.25,4195.06 4085.98,4189.78 4080.7,4179.23 " />
<polyline style="fill:none; stroke:rgb(255,0,0); stroke-width:4; stroke-linecap:butt; stroke-linejoin:miter; stroke-dasharray:0; opacity:1" points="4233.67,4105.37 4228.4,4094.81 4212.57,4089.54 4202.02,4089.54 4186.2,4094.81 4175.65,4110.64 4170.38,4137.02 4170.38,4163.4 4175.65,4184.5 4186.2,4195.06 4202.02,4200.33 4207.3,4200.33 4223.12,4195.06 4233.67,4184.5 4238.95,4168.68 4238.95,4163.4 4233.67,4147.57 4223.12,4137.02 4207.3,4131.74 4202.02,4131.74 4186.2,4137.02 4175.65,4147.57 4170.38,4163.4 " />
<polyline style="fill:none; stroke:rgb(255,255,0); stroke-width:4; stroke-linecap:butt; stroke-linejoin:miter; stroke-dasharray:0; opacity:1" points="3140.31,2653.8 3629.97,3333.39 " />
<polyline style="fill:none; stroke:rgb(0,255,255); stroke-width:4; stroke-linecap:butt; stroke-linejoin:miter; stroke-dasharray:0; opacity:1" points="3037.23,2728.1 3217.04,3631.03 " />
<polyline style="fill:none; stroke:rgb(0,255,255); stroke-width:4; stroke-linecap:butt; stroke-linejoin:miter; stroke-dasharray:0; opacity:1" points="3140.31,2653.8 3037.23,2728.1 " />
<polyline style="fill:none; stroke:rgb(255,0,0); stroke-width:4; stroke-linecap:butt; stroke-linejoin:miter; stroke-dasharray:0; opacity:1" points="2994.25,2802 2998.53,2798.91 3010.17,2797.03 3017.53,2798.22 3027.98,2803.7 3040.31,2820.82 3042.2,2832.46 3041.01,2839.83 3035.53,2850.28 3026.97,2856.45 3015.33,2858.34 2996.33,2859.03 2922.69,2847.07 2965.87,2907 " />
<polyline style="fill:none; stroke:rgb(255,0,0); stroke-width:4; stroke-linecap:butt; stroke-linejoin:miter; stroke-dasharray:0; opacity:1" points="3080.41,2876.46 3066.87,2866.7 3055.23,2868.59 3046.67,2874.76 3041.2,2885.21 3043.09,2896.86 3051.14,2917.06 3056.12,2932.99 3053.73,2947.72 3048.25,2958.17 3035.41,2967.42 3023.77,2969.31 3016.41,2968.11 3002.88,2958.36 2990.54,2941.24 2985.57,2925.31 2986.76,2917.95 2992.24,2907.5 3005.08,2898.24 3016.72,2896.35 3031.44,2898.75 3044.98,2908.5 3061.59,2922.54 3072.04,2928.01 3083.68,2926.12 3092.24,2919.96 3097.71,2909.51 3092.74,2893.58 3080.41,2876.46 " />
<polyline style="fill:none; stroke:rgb(0,255,255); stroke-width:4; stroke-linecap:butt; stroke-linejoin:miter; stroke-dasharray:0; opacity:1" points="3629.97,3333.39 3217.04,3631.03 " />
<polyline style="fill:none; stroke:rgb(255,0,0); stroke-width:4; stroke-linecap:butt; stroke-linejoin:miter; stroke-dasharray:0; opacity:1" points="3001.94,3457.02 3012.39,3462.5 3034.48,3466.08 2944.61,3530.86 " />
<polyline style="fill:none; stroke:rgb(255,0,0); stroke-width:4; stroke-linecap:butt; stroke-linejoin:miter; stroke-dasharray:0; opacity:1" points="3045.12,3516.94 3055.56,3522.42 3077.65,3526.01 2987.79,3590.78 " />
<polyline style="fill:none; stroke:rgb(255,0,0); stroke-width:4; stroke-linecap:butt; stroke-linejoin:miter; stroke-dasharray:0; opacity:1" points="3111.58,3573.09 3145.5,3620.17 3092.76,3619.17 3102.01,3632.01 3103.9,3643.65 3102.71,3651.02 3092.95,3664.55 3084.39,3670.72 3068.47,3675.69 3053.75,3673.3 3040.21,3663.55 3030.96,3650.71 3025.99,3634.78 3027.19,3627.42 3032.66,3616.97 " />
<polyline style="fill:none; stroke:rgb(255,255,0); stroke-width:4; stroke-linecap:butt; stroke-linejoin:miter; stroke-dasharray:0; opacity:1" points="3140.31,2653.8 3032.12,3333.39 " />
<polyline style="fill:none; stroke:rgb(0,255,255); stroke-width:4; stroke-linecap:butt; stroke-linejoin:miter; stroke-dasharray:0; opacity:1" points="3236.35,2669.09 3032.12,3333.39 " />
<polyline style="fill:none; stroke:rgb(0,255,255); stroke-width:4; stroke-linecap:butt; stroke-linejoin:miter; stroke-dasharray:0; opacity:1" points="3140.31,2653.8 3236.35,2669.09 " />
<polyline style="fill:none; stroke:rgb(255,0,0); stroke-width:4; stroke-linecap:butt; stroke-linejoin:miter; stroke-dasharray:0; opacity:1" points="3281.43,2882.48 3276.22,2881.65 3266.63,2874.78 3262.25,2868.74 3258.7,2857.49 3262.02,2836.65 3268.89,2827.06 3274.92,2822.68 3286.17,2819.13 3296.59,2820.79 3306.18,2827.66 3320.15,2840.57 3363.95,2900.97 3375.56,2828.02 " />
<polyline style="fill:none; stroke:rgb(255,0,0); stroke-width:4; stroke-linecap:butt; stroke-linejoin:miter; stroke-dasharray:0; opacity:1" points="3295.53,2793.91 3290.32,2793.08 3280.73,2786.21 3276.35,2780.17 3272.8,2768.92 3276.12,2748.08 3282.98,2738.49 3289.02,2734.11 3300.27,2730.56 3310.69,2732.22 3320.28,2739.08 3334.25,2751.99 3378.05,2812.39 3389.66,2739.45 " />
<polyline style="fill:none; stroke:rgb(0,255,255); stroke-width:4; stroke-linecap:butt; stroke-linejoin:miter; stroke-dasharray:0; opacity:1" points="3032.12,3333.39 3032.12,3333.39 " />
<polyline style="fill:none; stroke:rgb(255,255,0); stroke-width:4; stroke-linecap:butt; stroke-linejoin:miter; stroke-dasharray:0; opacity:1" points="3390.83,1070.61 3140.31,2653.8 " />
<polyline style="fill:none; stroke:rgb(0,255,255); stroke-width:4; stroke-linecap:butt; stroke-linejoin:miter; stroke-dasharray:0; opacity:1" points="3390.83,1070.61 3110.86,2649.13 " />
<polyline style="fill:none; stroke:rgb(0,255,255); stroke-width:4; stroke-linecap:butt; stroke-linejoin:miter; stroke-dasharray:0; opacity:1" points="3390.83,1070.61 3390.83,1070.61 " />
<polyline style="fill:none; stroke:rgb(0,255,255); stroke-width:4; stroke-linecap:butt; stroke-linejoin:miter; stroke-dasharray:0; opacity:1" points="3140.31,2653.8 3110.86,2649.13 " />
<polyline style="fill:none; stroke:rgb(255,0,0); stroke-width:4; stroke-linecap:butt; stroke-linejoin:miter; stroke-dasharray:0; opacity:1" points="2966.56,2521.6 3067.72,2591.03 " />
<polyline style="fill:none; stroke:rgb(255,0,0); stroke-width:4; stroke-linecap:butt; stroke-linejoin:miter; stroke-dasharray:0; opacity:1" points="2955.01,2594.55 2966.56,2521.6 " />
<polyline style="fill:none; stroke:rgb(0,255,0); stroke-width:4; stroke-linecap:butt; stroke-linejoin:miter; stroke-dasharray:0; opacity:1" points="5004.95,3466.65 5081.88,3333.39 5158.8,3466.65 " />
<polyline style="fill:none; stroke:rgb(0,255,0); stroke-width:4; stroke-linecap:butt; stroke-linejoin:miter; stroke-dasharray:0; opacity:1" points="4966.49,3466.65 5197.26,3466.65 " />
<polyline style="fill:none; stroke:rgb(0,255,0); stroke-width:4; stroke-linecap:butt; stroke-linejoin:miter; stroke-dasharray:0; opacity:1" points="4966.49,3512.81 5197.26,3512.81 " />
<polyline style="fill:none; stroke:rgb(0,255,0); stroke-width:4; stroke-linecap:butt; stroke-linejoin:miter; stroke-dasharray:0; opacity:1" points="2955.2,3466.65 3032.12,3333.39 3109.05,3466.65 " />
<polyline style="fill:none; stroke:rgb(0,255,0); stroke-width:4; stroke-linecap:butt; stroke-linejoin:miter; stroke-dasharray:0; opacity:1" points="2916.74,3466.65 3147.51,3466.65 " />
<polyline style="fill:none; stroke:rgb(0,255,0); stroke-width:4; stroke-linecap:butt; stroke-linejoin:miter; stroke-dasharray:0; opacity:1" points="2962.9,3466.65 2916.74,3512.81 " />
<polyline style="fill:none; stroke:rgb(0,255,0); stroke-width:4; stroke-linecap:butt; stroke-linejoin:miter; stroke-dasharray:0; opacity:1" points="3009.05,3466.65 2962.9,3512.81 " />
<polyline style="fill:none; stroke:rgb(0,255,0); stroke-width:4; stroke-linecap:butt; stroke-linejoin:miter; stroke-dasharray:0; opacity:1" points="3055.2,3466.65 3009.05,3512.81 " />
<polyline style="fill:none; stroke:rgb(0,255,0); stroke-width:4; stroke-linecap:butt; stroke-linejoin:miter; stroke-dasharray:0; opacity:1" points="3101.36,3466.65 3055.2,3512.81 " />
<polyline style="fill:none; stroke:rgb(0,255,0); stroke-width:4; stroke-linecap:butt; stroke-linejoin:miter; stroke-dasharray:0; opacity:1" points="3147.51,3466.65 3101.36,3512.81 " />
</g>
</g>
</svg>
