<?xml version="1.0" encoding="UTF-8"?>
<svg xmlns="http://www.w3.org/2000/svg" xmlns:xlink="http://www.w3.org/1999/xlink" width="958.499pt" height="520.5pt" viewBox="0 0 8115 4406" version="1.1">
<g>
<pattern id="pattern0" patternUnits="userSpaceOnUse" x="0" y="0" width="7" height="7">
<line x1="0" y1="3" x2="7" y2="3" style="fill:none; stroke:rgb(0,0,0); opacity:1" />
</pattern>
<clipPath id="cliprect0">
<rect x="1" y="-1" width="8113" height="4407" />
</clipPath>
<g clip-path="url(#cliprect0)">
<polyline style="fill:none; stroke:rgb(102,102,0); stroke-width:4; stroke-linecap:butt; stroke-linejoin:miter; stroke-dasharray:0; opacity:1" points="3580.06,3465.62 5201.66,3465.62 " />
<polyline style="fill:none; stroke:rgb(0,0,255); stroke-width:4; stroke-linecap:butt; stroke-linejoin:miter; stroke-dasharray:0; opacity:1" points="3580.06,3164.29 5201.66,4037.83 " />
<polyline style="fill:none; stroke:rgb(0,0,255); stroke-width:4; stroke-linecap:butt; stroke-linejoin:miter; stroke-dasharray:0; opacity:1" points="3580.06,3465.62 3580.06,3164.29 " />
<polyline style="fill:none; stroke:rgb(255,0,0); stroke-width:4; stroke-linecap:butt; stroke-linejoin:miter; stroke-dasharray:0; opacity:1" points="3620.15,3001.79 3678.17,3001.79 3646.52,3044 3662.34,3044 3672.89,3049.27 3678.17,3054.55 3683.44,3070.38 3683.44,3080.93 3678.17,3096.75 3667.62,3107.31 3651.8,3112.58 3635.97,3112.58 3620.15,3107.31 3614.87,3102.03 3609.6,3091.48 " />
<polyline style="fill:none; stroke:rgb(255,0,0); stroke-width:4; stroke-linecap:butt; stroke-linejoin:miter; stroke-dasharray:0; opacity:1" points="3704.54,3028.17 3704.54,3022.89 3709.82,3012.34 3715.09,3007.06 3725.64,3001.79 3746.74,3001.79 3757.29,3007.06 3762.57,3012.34 3767.84,3022.89 3767.84,3033.44 3762.57,3044 3752.02,3059.82 3699.27,3112.58 3773.12,3112.58 " />
<polyline style="fill:none; stroke:rgb(255,0,0); stroke-width:4; stroke-linecap:butt; stroke-linejoin:miter; stroke-dasharray:0; opacity:1" points="3815.31,3001.79 3799.49,3007.06 3794.21,3017.62 3794.21,3028.17 3799.49,3038.72 3810.04,3044 3831.14,3049.27 3846.96,3054.55 3857.51,3065.1 3862.79,3075.65 3862.79,3091.48 3857.51,3102.03 3852.24,3107.31 3836.41,3112.58 3815.31,3112.58 3799.49,3107.31 3794.21,3102.03 3788.94,3091.48 3788.94,3075.65 3794.21,3065.1 3804.76,3054.55 3820.59,3049.27 3841.69,3044 3852.24,3038.72 3857.51,3028.17 3857.51,3017.62 3852.24,3007.06 3836.41,3001.79 3815.31,3001.79 " />
<polyline style="fill:none; stroke:rgb(0,0,255); stroke-width:4; stroke-linecap:butt; stroke-linejoin:miter; stroke-dasharray:0; opacity:1" points="5201.66,3465.62 5201.66,4037.83 " />
<polyline style="fill:none; stroke:rgb(255,0,0); stroke-width:4; stroke-linecap:butt; stroke-linejoin:miter; stroke-dasharray:0; opacity:1" points="4792.34,4152.85 4887.28,4152.85 " />
<polyline style="fill:none; stroke:rgb(255,0,0); stroke-width:4; stroke-linecap:butt; stroke-linejoin:miter; stroke-dasharray:0; opacity:1" points="4971.68,4105.36 4966.4,4094.81 4950.58,4089.54 4940.03,4089.54 4924.21,4094.81 4913.66,4110.64 4908.38,4137.02 4908.38,4163.4 4913.66,4184.5 4924.21,4195.05 4940.03,4200.33 4945.31,4200.33 4961.13,4195.05 4971.68,4184.5 4976.95,4168.67 4976.95,4163.4 4971.68,4147.57 4961.13,4137.02 4945.31,4131.74 4940.03,4131.74 4924.21,4137.02 4913.66,4147.57 4908.38,4163.4 " />
<polyline style="fill:none; stroke:rgb(255,0,0); stroke-width:4; stroke-linecap:butt; stroke-linejoin:miter; stroke-dasharray:0; opacity:1" points="4998.05,4115.92 4998.05,4110.64 5003.33,4100.09 5008.6,4094.81 5019.15,4089.54 5040.25,4089.54 5050.8,4094.81 5056.08,4100.09 5061.35,4110.64 5061.35,4121.19 5056.08,4131.74 5045.53,4147.57 4992.78,4200.33 5066.63,4200.33 " />
<polyline style="fill:none; stroke:rgb(255,0,0); stroke-width:4; stroke-linecap:butt; stroke-linejoin:miter; stroke-dasharray:0; opacity:1" points="5087.73,4115.92 5087.73,4110.64 5093,4100.09 5098.27,4094.81 5108.82,4089.54 5129.92,4089.54 5140.47,4094.81 5145.75,4100.09 5151.02,4110.64 5151.02,4121.19 5145.75,4131.74 5135.2,4147.57 5082.45,4200.33 5156.3,4200.33 " />
<polyline style="fill:none; stroke:rgb(102,102,0); stroke-width:4; stroke-linecap:butt; stroke-linejoin:miter; stroke-dasharray:0; opacity:1" points="3033.16,2706.6 3580.06,3465.62 " />
<polyline style="fill:none; stroke:rgb(0,0,255); stroke-width:4; stroke-linecap:butt; stroke-linejoin:miter; stroke-dasharray:0; opacity:1" points="3176.07,2603.59 3722.96,3362.62 " />
<polyline style="fill:none; stroke:rgb(255,0,0); stroke-width:4; stroke-linecap:butt; stroke-linejoin:miter; stroke-dasharray:0; opacity:1" points="3490.18,2797.71 3500.63,2803.19 3522.72,2806.78 3432.85,2871.55 " />
<polyline style="fill:none; stroke:rgb(255,0,0); stroke-width:4; stroke-linecap:butt; stroke-linejoin:miter; stroke-dasharray:0; opacity:1" points="3560.61,2922.53 3544.69,2927.51 3529.96,2925.12 3516.43,2915.36 3513.35,2911.08 3508.38,2895.15 3510.77,2880.42 3520.52,2866.89 3524.8,2863.81 3540.72,2858.83 3555.45,2861.22 3568.98,2870.98 3572.06,2875.26 3577.04,2891.18 3574.65,2905.91 3560.61,2922.53 3539.22,2937.96 3514.74,2949.1 3495.73,2949.79 3482.2,2940.04 3476.03,2931.48 3471.06,2915.55 3476.53,2905.1 " />
<polyline style="fill:none; stroke:rgb(255,0,0); stroke-width:4; stroke-linecap:butt; stroke-linejoin:miter; stroke-dasharray:0; opacity:1" points="3584.59,2937.76 3588.87,2934.68 3600.51,2932.79 3607.88,2933.99 3618.32,2939.46 3630.66,2956.58 3632.55,2968.23 3631.35,2975.59 3625.88,2986.04 3617.32,2992.21 3605.68,2994.1 3586.67,2994.79 3513.04,2982.84 3556.21,3042.76 " />
<polyline style="fill:none; stroke:rgb(0,0,255); stroke-width:4; stroke-linecap:butt; stroke-linejoin:miter; stroke-dasharray:0; opacity:1" points="3033.16,2706.6 3176.07,2603.59 " />
<polyline style="fill:none; stroke:rgb(0,0,255); stroke-width:4; stroke-linecap:butt; stroke-linejoin:miter; stroke-dasharray:0; opacity:1" points="3580.06,3465.62 3722.96,3362.62 " />
<polyline style="fill:none; stroke:rgb(102,102,0); stroke-width:4; stroke-linecap:butt; stroke-linejoin:miter; stroke-dasharray:0; opacity:1" points="3033.16,2706.6 2912.34,3465.62 " />
<polyline style="fill:none; stroke:rgb(0,0,255); stroke-width:4; stroke-linecap:butt; stroke-linejoin:miter; stroke-dasharray:0; opacity:1" points="2979.24,2698.01 2858.42,3457.04 " />
<polyline style="fill:none; stroke:rgb(255,0,0); stroke-width:4; stroke-linecap:butt; stroke-linejoin:miter; stroke-dasharray:0; opacity:1" points="2754.24,3078.03 2745.95,3130.13 2792,3142.8 2787.62,3136.76 2784.9,3120.3 2787.39,3104.67 2795.09,3089.87 2807.16,3081.11 2823.62,3078.39 2834.04,3080.05 2848.84,3087.75 2857.6,3099.83 2860.32,3116.29 2857.83,3131.92 2850.13,3146.72 2844.09,3151.1 2832.85,3154.65 " />
<polyline style="fill:none; stroke:rgb(255,0,0); stroke-width:4; stroke-linecap:butt; stroke-linejoin:miter; stroke-dasharray:0; opacity:1" points="2805.64,2990.05 2820.43,2997.75 2829.19,3009.83 2831.91,3026.29 2831.09,3031.5 2823.39,3046.3 2811.31,3055.06 2794.85,3057.78 2789.64,3056.95 2774.85,3049.25 2766.09,3037.17 2763.37,3020.71 2764.2,3015.5 2771.89,3000.7 2783.97,2991.94 2805.64,2990.05 2831.68,2994.2 2856.9,3003.55 2870.87,3016.46 2873.59,3032.92 2871.93,3043.34 2864.23,3058.15 2852.98,3061.7 " />
<polyline style="fill:none; stroke:rgb(0,0,255); stroke-width:4; stroke-linecap:butt; stroke-linejoin:miter; stroke-dasharray:0; opacity:1" points="3033.16,2706.6 2979.24,2698.01 " />
<polyline style="fill:none; stroke:rgb(0,0,255); stroke-width:4; stroke-linecap:butt; stroke-linejoin:miter; stroke-dasharray:0; opacity:1" points="2912.34,3465.62 2858.42,3457.04 " />
<polyline style="fill:none; stroke:rgb(102,102,0); stroke-width:4; stroke-linecap:butt; stroke-linejoin:miter; stroke-dasharray:0; opacity:1" points="3312.97,938.378 3033.16,2706.6 " />
<polyline style="fill:none; stroke:rgb(0,0,255); stroke-width:4; stroke-linecap:butt; stroke-linejoin:miter; stroke-dasharray:0; opacity:1" points="3305.87,937.254 3026.07,2705.48 " />
<polyline style="fill:none; stroke:rgb(255,0,0); stroke-width:4; stroke-linecap:butt; stroke-linejoin:miter; stroke-dasharray:0; opacity:1" points="3002.62,1814.2 3005.35,1830.66 3014.95,1837.52 3025.37,1839.17 3036.61,1835.61 3043.47,1826.01 3051.98,1805.99 3059.67,1791.18 3071.73,1782.41 3082.98,1778.85 3098.61,1781.32 3108.2,1788.18 3112.59,1794.22 3115.33,1810.68 3112.03,1831.52 3104.34,1846.33 3098.31,1850.72 3087.06,1854.28 3071.43,1851.8 3061.84,1844.94 3053.07,1832.87 3050.33,1816.41 3048.42,1794.74 3044.86,1783.5 3035.26,1776.64 3024.84,1774.99 3013.6,1778.55 3005.92,1793.36 3002.62,1814.2 " />
<polyline style="fill:none; stroke:rgb(0,0,255); stroke-width:4; stroke-linecap:butt; stroke-linejoin:miter; stroke-dasharray:0; opacity:1" points="3312.97,938.378 3305.87,937.254 " />
<polyline style="fill:none; stroke:rgb(0,0,255); stroke-width:4; stroke-linecap:butt; stroke-linejoin:miter; stroke-dasharray:0; opacity:1" points="3033.16,2706.6 3026.07,2705.48 " />
<polyline style="fill:none; stroke:rgb(0,102,0); stroke-width:4; stroke-linecap:butt; stroke-linejoin:miter; stroke-dasharray:0; opacity:1" points="5124.74,3598.89 5201.66,3465.62 5278.58,3598.89 " />
<polyline style="fill:none; stroke:rgb(0,102,0); stroke-width:4; stroke-linecap:butt; stroke-linejoin:miter; stroke-dasharray:0; opacity:1" points="5086.28,3598.89 5317.05,3598.89 " />
<polyline style="fill:none; stroke:rgb(0,102,0); stroke-width:4; stroke-linecap:butt; stroke-linejoin:miter; stroke-dasharray:0; opacity:1" points="5086.28,3645.05 5317.05,3645.05 " />
<polyline style="fill:none; stroke:rgb(102,0,0); stroke-width:4; stroke-linecap:butt; stroke-linejoin:miter; stroke-dasharray:0; opacity:1" points="5201.66,4019.59 5201.66,3576.42 " />
<polygon style="fill:rgb(102,0,0); fill-rule:evenodd; stroke:none; opacity:1" points="5146.28,3687.21 5201.66,3576.42 5257.05,3687.21 " />
<polyline style="fill:none; stroke:rgb(102,0,0); stroke-width:4; stroke-linecap:butt; stroke-linejoin:miter; stroke-dasharray:0; opacity:1" points="5146.28,3795.23 5257.05,3795.23 " />
<polygon style="fill:rgb(255,255,255); fill-rule:evenodd; stroke:none; opacity:1" points="5127.81,4164.68 5127.81,3742.61 4943.2,3742.61 4943.2,4164.68 " />
<polyline style="fill:none; stroke:rgb(102,0,0); stroke-width:4; stroke-linecap:butt; stroke-linejoin:miter; stroke-dasharray:0; opacity:1" points="4995.94,4101.36 4985.39,4106.64 4980.12,4122.47 4980.12,4133.02 4985.39,4148.85 5001.22,4159.4 5027.59,4164.68 5053.97,4164.68 5075.07,4159.4 5085.62,4148.85 5090.89,4133.02 5090.89,4127.74 5085.62,4111.92 5075.07,4101.36 5059.24,4096.09 5053.97,4096.09 5038.14,4101.36 5027.59,4111.92 5022.32,4127.74 5022.32,4133.02 5027.59,4148.85 5038.14,4159.4 5053.97,4164.68 " />
<polyline style="fill:none; stroke:rgb(102,0,0); stroke-width:4; stroke-linecap:butt; stroke-linejoin:miter; stroke-dasharray:0; opacity:1" points="5006.49,4074.99 5001.22,4074.99 4990.67,4069.71 4985.39,4064.43 4980.12,4053.88 4980.12,4032.78 4985.39,4022.23 4990.67,4016.95 5001.22,4011.67 5011.77,4011.67 5022.32,4016.95 5038.14,4027.5 5090.89,4080.26 5090.89,4006.4 " />
<polyline style="fill:none; stroke:rgb(102,0,0); stroke-width:4; stroke-linecap:butt; stroke-linejoin:miter; stroke-dasharray:0; opacity:1" points="5006.49,3985.3 5001.22,3985.3 4990.67,3980.02 4985.39,3974.74 4980.12,3964.19 4980.12,3943.09 4985.39,3932.54 4990.67,3927.26 5001.22,3921.99 5011.77,3921.99 5022.32,3927.26 5038.14,3937.81 5090.89,3990.57 5090.89,3916.71 " />
<polyline style="fill:none; stroke:rgb(102,0,0); stroke-width:4; stroke-linecap:butt; stroke-linejoin:miter; stroke-dasharray:0; opacity:1" points="4980.12,3837.57 5090.89,3837.57 " />
<polyline style="fill:none; stroke:rgb(102,0,0); stroke-width:4; stroke-linecap:butt; stroke-linejoin:miter; stroke-dasharray:0; opacity:1" points="4980.12,3837.57 5090.89,3763.71 " />
<polyline style="fill:none; stroke:rgb(102,0,0); stroke-width:4; stroke-linecap:butt; stroke-linejoin:miter; stroke-dasharray:0; opacity:1" points="4980.12,3763.71 5090.89,3763.71 " />
<polyline style="fill:none; stroke:rgb(0,102,0); stroke-width:4; stroke-linecap:butt; stroke-linejoin:miter; stroke-dasharray:0; opacity:1" points="2835.42,3598.89 2912.34,3465.62 2989.26,3598.89 " />
<polyline style="fill:none; stroke:rgb(0,102,0); stroke-width:4; stroke-linecap:butt; stroke-linejoin:miter; stroke-dasharray:0; opacity:1" points="2796.95,3598.89 3027.72,3598.89 " />
<polyline style="fill:none; stroke:rgb(0,102,0); stroke-width:4; stroke-linecap:butt; stroke-linejoin:miter; stroke-dasharray:0; opacity:1" points="2843.11,3598.89 2796.95,3645.05 " />
<polyline style="fill:none; stroke:rgb(0,102,0); stroke-width:4; stroke-linecap:butt; stroke-linejoin:miter; stroke-dasharray:0; opacity:1" points="2889.26,3598.89 2843.11,3645.05 " />
<polyline style="fill:none; stroke:rgb(0,102,0); stroke-width:4; stroke-linecap:butt; stroke-linejoin:miter; stroke-dasharray:0; opacity:1" points="2935.42,3598.89 2889.26,3645.05 " />
<polyline style="fill:none; stroke:rgb(0,102,0); stroke-width:4; stroke-linecap:butt; stroke-linejoin:miter; stroke-dasharray:0; opacity:1" points="2981.57,3598.89 2935.42,3645.05 " />
<polyline style="fill:none; stroke:rgb(0,102,0); stroke-width:4; stroke-linecap:butt; stroke-linejoin:miter; stroke-dasharray:0; opacity:1" points="3027.73,3598.89 2981.57,3645.05 " />
<polyline style="fill:none; stroke:rgb(102,0,0); stroke-width:4; stroke-linecap:butt; stroke-linejoin:miter; stroke-dasharray:0; opacity:1" points="2912.34,4019.59 2912.34,3576.42 " />
<polygon style="fill:rgb(102,0,0); fill-rule:evenodd; stroke:none; opacity:1" points="2856.95,3687.21 2912.34,3576.42 2967.72,3687.21 " />
<polyline style="fill:none; stroke:rgb(102,0,0); stroke-width:4; stroke-linecap:butt; stroke-linejoin:miter; stroke-dasharray:0; opacity:1" points="2856.95,3795.23 2967.72,3795.23 " />
<polygon style="fill:rgb(255,255,255); fill-rule:evenodd; stroke:none; opacity:1" points="2838.49,4169.95 2838.49,3742.61 2653.87,3742.61 2653.87,4169.95 " />
<polyline style="fill:none; stroke:rgb(102,0,0); stroke-width:4; stroke-linecap:butt; stroke-linejoin:miter; stroke-dasharray:0; opacity:1" points="2690.8,4159.4 2690.8,4101.36 2733,4133.02 2733,4117.19 2738.27,4106.64 2743.55,4101.36 2759.37,4096.09 2769.92,4096.09 2785.74,4101.36 2796.29,4111.92 2801.57,4127.74 2801.57,4143.57 2796.29,4159.4 2791.02,4164.68 2780.47,4169.95 " />
<polyline style="fill:none; stroke:rgb(102,0,0); stroke-width:4; stroke-linecap:butt; stroke-linejoin:miter; stroke-dasharray:0; opacity:1" points="2690.8,4006.4 2801.57,4059.16 " />
<polyline style="fill:none; stroke:rgb(102,0,0); stroke-width:4; stroke-linecap:butt; stroke-linejoin:miter; stroke-dasharray:0; opacity:1" points="2690.8,4080.26 2690.8,4006.4 " />
<polyline style="fill:none; stroke:rgb(102,0,0); stroke-width:4; stroke-linecap:butt; stroke-linejoin:miter; stroke-dasharray:0; opacity:1" points="2690.8,3964.19 2696.07,3980.02 2706.62,3985.3 2717.17,3985.3 2727.72,3980.02 2733,3969.47 2738.27,3948.36 2743.55,3932.54 2754.09,3921.99 2764.64,3916.71 2780.47,3916.71 2791.02,3921.99 2796.29,3927.26 2801.57,3943.09 2801.57,3964.19 2796.29,3980.02 2791.02,3985.3 2780.47,3990.57 2764.64,3990.57 2754.09,3985.3 2743.55,3974.74 2738.27,3958.92 2733,3937.81 2727.72,3927.26 2717.17,3921.99 2706.62,3921.99 2696.07,3927.26 2690.8,3943.09 2690.8,3964.19 " />
<polyline style="fill:none; stroke:rgb(102,0,0); stroke-width:4; stroke-linecap:butt; stroke-linejoin:miter; stroke-dasharray:0; opacity:1" points="2690.8,3837.57 2801.57,3837.57 " />
<polyline style="fill:none; stroke:rgb(102,0,0); stroke-width:4; stroke-linecap:butt; stroke-linejoin:miter; stroke-dasharray:0; opacity:1" points="2690.8,3837.57 2801.57,3763.71 " />
<polyline style="fill:none; stroke:rgb(102,0,0); stroke-width:4; stroke-linecap:butt; stroke-linejoin:miter; stroke-dasharray:0; opacity:1" points="2690.8,3763.71 2801.57,3763.71 " />
</g>
</g>
</svg>
