<?xml version="1.0" encoding="UTF-8"?>
<svg xmlns="http://www.w3.org/2000/svg" xmlns:xlink="http://www.w3.org/1999/xlink" width="958.499pt" height="520.5pt" viewBox="0 0 8115 4406" version="1.1">
<g>
<pattern id="pattern0" patternUnits="userSpaceOnUse" x="0" y="0" width="7" height="7">
<line x1="0" y1="3" x2="7" y2="3" style="fill:none; stroke:rgb(0,0,0); opacity:1" />
</pattern>
<clipPath id="cliprect0">
<rect x="1" y="-1" width="8113" height="4407" />
</clipPath>
<g clip-path="url(#cliprect0)">
<polyline style="fill:none; stroke:rgb(102,102,0); stroke-width:4; stroke-linecap:butt; stroke-linejoin:miter; stroke-dasharray:0; opacity:1" points="3580.06,3465.62 5201.66,3465.62 " />
<polyline style="fill:none; stroke:rgb(0,0,255); stroke-width:4; stroke-linecap:butt; stroke-linejoin:miter; stroke-dasharray:0; opacity:1" points="3580.06,3465.62 5201.66,3465.62 " />
<polyline style="fill:none; stroke:rgb(0,0,255); stroke-width:4; stroke-linecap:butt; stroke-linejoin:miter; stroke-dasharray:0; opacity:1" points="3580.06,3465.62 3580.06,3465.62 " />
<polyline style="fill:none; stroke:rgb(0,0,255); stroke-width:4; stroke-linecap:butt; stroke-linejoin:miter; stroke-dasharray:0; opacity:1" points="5201.66,3465.62 5201.66,3465.62 " />
<polyline style="fill:none; stroke:rgb(102,102,0); stroke-width:4; stroke-linecap:butt; stroke-linejoin:miter; stroke-dasharray:0; opacity:1" points="3033.16,2706.6 3580.06,3465.62 " />
<polyline style="fill:none; stroke:rgb(0,0,255); stroke-width:4; stroke-linecap:butt; stroke-linejoin:miter; stroke-dasharray:0; opacity:1" points="3363.98,2468.15 3910.87,3227.17 " />
<polyline style="fill:none; stroke:rgb(255,0,0); stroke-width:4; stroke-linecap:butt; stroke-linejoin:miter; stroke-dasharray:0; opacity:1" points="3675.36,2667.49 3679.64,2664.41 3691.28,2662.52 3698.64,2663.71 3709.09,2669.19 3721.42,2686.31 3723.31,2697.95 3722.12,2705.32 3716.64,2715.77 3708.08,2721.94 3696.44,2723.83 3677.44,2724.52 3603.8,2712.56 3646.98,2772.49 " />
<polyline style="fill:none; stroke:rgb(255,0,0); stroke-width:4; stroke-linecap:butt; stroke-linejoin:miter; stroke-dasharray:0; opacity:1" points="3770.27,2781.17 3775.74,2770.72 3770.77,2754.79 3764.6,2746.23 3751.07,2736.48 3732.06,2737.17 3707.58,2748.31 3686.19,2763.73 3672.15,2780.35 3669.76,2795.08 3674.73,2811.01 3677.82,2815.29 3691.35,2825.04 3706.08,2827.44 3722,2822.46 3726.28,2819.38 3736.03,2805.84 3738.42,2791.11 3733.45,2775.19 3730.37,2770.91 3716.83,2761.15 3702.11,2758.76 3686.19,2763.73 " />
<polyline style="fill:none; stroke:rgb(255,0,0); stroke-width:4; stroke-linecap:butt; stroke-linejoin:miter; stroke-dasharray:0; opacity:1" points="3819.61,2849.65 3825.08,2839.2 3820.11,2823.27 3813.94,2814.71 3800.41,2804.96 3781.41,2805.65 3756.93,2816.79 3735.53,2832.22 3721.5,2848.84 3719.11,2863.57 3724.08,2879.49 3727.16,2883.77 3740.69,2893.53 3755.42,2895.92 3771.34,2890.94 3775.62,2887.86 3785.37,2874.33 3787.77,2859.6 3782.79,2843.67 3779.71,2839.39 3766.18,2829.64 3751.45,2827.24 3735.53,2832.22 " />
<polyline style="fill:none; stroke:rgb(0,0,255); stroke-width:4; stroke-linecap:butt; stroke-linejoin:miter; stroke-dasharray:0; opacity:1" points="3033.16,2706.6 3363.98,2468.15 " />
<polyline style="fill:none; stroke:rgb(0,0,255); stroke-width:4; stroke-linecap:butt; stroke-linejoin:miter; stroke-dasharray:0; opacity:1" points="3580.06,3465.62 3910.87,3227.17 " />
<polyline style="fill:none; stroke:rgb(102,102,0); stroke-width:4; stroke-linecap:butt; stroke-linejoin:miter; stroke-dasharray:0; opacity:1" points="3033.16,2706.6 2912.34,3465.62 " />
<polyline style="fill:none; stroke:rgb(0,0,255); stroke-width:4; stroke-linecap:butt; stroke-linejoin:miter; stroke-dasharray:0; opacity:1" points="3598.14,2796.57 3477.32,3555.6 " />
<polyline style="fill:none; stroke:rgb(255,0,0); stroke-width:4; stroke-linecap:butt; stroke-linejoin:miter; stroke-dasharray:0; opacity:1" points="3621.02,3384.34 3635.95,3290.56 " />
<polyline style="fill:none; stroke:rgb(255,0,0); stroke-width:4; stroke-linecap:butt; stroke-linejoin:miter; stroke-dasharray:0; opacity:1" points="3578.41,3249.34 3587.54,3192.03 3624.23,3229.93 3626.72,3214.3 3633.59,3204.71 3639.63,3200.33 3656.08,3197.6 3666.5,3199.26 3681.3,3206.96 3690.06,3219.04 3692.78,3235.5 3690.29,3251.13 3682.6,3265.93 3676.56,3270.31 3665.31,3273.87 " />
<polyline style="fill:none; stroke:rgb(255,0,0); stroke-width:4; stroke-linecap:butt; stroke-linejoin:miter; stroke-dasharray:0; opacity:1" points="3602.47,3098.25 3703.56,3167.77 " />
<polyline style="fill:none; stroke:rgb(255,0,0); stroke-width:4; stroke-linecap:butt; stroke-linejoin:miter; stroke-dasharray:0; opacity:1" points="3590.85,3171.19 3602.47,3098.25 " />
<polyline style="fill:none; stroke:rgb(255,0,0); stroke-width:4; stroke-linecap:butt; stroke-linejoin:miter; stroke-dasharray:0; opacity:1" points="3606.61,3072.19 3615.74,3014.88 3652.43,3052.78 3654.92,3037.15 3661.79,3027.56 3667.83,3023.18 3684.28,3020.46 3694.7,3022.11 3709.5,3029.81 3718.26,3041.89 3720.98,3058.35 3718.49,3073.98 3710.8,3088.79 3704.76,3093.17 3693.51,3096.72 " />
<polyline style="fill:none; stroke:rgb(0,0,255); stroke-width:4; stroke-linecap:butt; stroke-linejoin:miter; stroke-dasharray:0; opacity:1" points="3033.16,2706.6 3598.14,2796.57 " />
<polyline style="fill:none; stroke:rgb(0,0,255); stroke-width:4; stroke-linecap:butt; stroke-linejoin:miter; stroke-dasharray:0; opacity:1" points="2912.34,3465.62 3477.32,3555.6 " />
<polyline style="fill:none; stroke:rgb(102,102,0); stroke-width:4; stroke-linecap:butt; stroke-linejoin:miter; stroke-dasharray:0; opacity:1" points="3312.97,938.378 3033.16,2706.6 " />
<polyline style="fill:none; stroke:rgb(0,0,255); stroke-width:4; stroke-linecap:butt; stroke-linejoin:miter; stroke-dasharray:0; opacity:1" points="3387.77,950.219 3107.97,2718.44 " />
<polyline style="fill:none; stroke:rgb(255,0,0); stroke-width:4; stroke-linecap:butt; stroke-linejoin:miter; stroke-dasharray:0; opacity:1" points="3338.36,1998.22 3353.2,1904.42 " />
<polyline style="fill:none; stroke:rgb(255,0,0); stroke-width:4; stroke-linecap:butt; stroke-linejoin:miter; stroke-dasharray:0; opacity:1" points="3302.23,1821.57 3366.92,1885.23 3379.29,1807.06 " />
<polyline style="fill:none; stroke:rgb(255,0,0); stroke-width:4; stroke-linecap:butt; stroke-linejoin:miter; stroke-dasharray:0; opacity:1" points="3302.23,1821.57 3411.64,1838.89 " />
<polyline style="fill:none; stroke:rgb(255,0,0); stroke-width:4; stroke-linecap:butt; stroke-linejoin:miter; stroke-dasharray:0; opacity:1" points="3355.19,1723.12 3369.99,1730.81 3378.76,1742.88 3381.5,1759.34 3380.68,1764.55 3372.99,1779.36 3360.92,1788.13 3344.47,1790.87 3339.26,1790.04 3324.45,1782.36 3315.68,1770.28 3312.95,1753.83 3313.77,1748.62 3321.45,1733.81 3333.52,1725.03 3355.19,1723.12 3381.24,1727.25 3406.46,1736.58 3420.44,1749.48 3423.18,1765.94 3421.53,1776.36 3413.85,1791.17 3402.6,1794.73 " />
<polyline style="fill:none; stroke:rgb(0,0,255); stroke-width:4; stroke-linecap:butt; stroke-linejoin:miter; stroke-dasharray:0; opacity:1" points="3312.97,938.378 3387.77,950.219 " />
<polyline style="fill:none; stroke:rgb(0,0,255); stroke-width:4; stroke-linecap:butt; stroke-linejoin:miter; stroke-dasharray:0; opacity:1" points="3033.16,2706.6 3107.97,2718.44 " />
<polyline style="fill:none; stroke:rgb(0,102,0); stroke-width:4; stroke-linecap:butt; stroke-linejoin:miter; stroke-dasharray:0; opacity:1" points="5124.74,3598.89 5201.66,3465.62 5278.58,3598.89 " />
<polyline style="fill:none; stroke:rgb(0,102,0); stroke-width:4; stroke-linecap:butt; stroke-linejoin:miter; stroke-dasharray:0; opacity:1" points="5086.28,3598.89 5317.05,3598.89 " />
<polyline style="fill:none; stroke:rgb(0,102,0); stroke-width:4; stroke-linecap:butt; stroke-linejoin:miter; stroke-dasharray:0; opacity:1" points="5086.28,3645.05 5317.05,3645.05 " />
<polyline style="fill:none; stroke:rgb(102,0,0); stroke-width:4; stroke-linecap:butt; stroke-linejoin:miter; stroke-dasharray:0; opacity:1" points="5201.66,4019.59 5201.66,3576.42 " />
<polygon style="fill:rgb(102,0,0); fill-rule:evenodd; stroke:none; opacity:1" points="5146.28,3687.21 5201.66,3576.42 5257.05,3687.21 " />
<polyline style="fill:none; stroke:rgb(102,0,0); stroke-width:4; stroke-linecap:butt; stroke-linejoin:miter; stroke-dasharray:0; opacity:1" points="5146.28,3795.23 5257.05,3795.23 " />
<polygon style="fill:rgb(255,255,255); fill-rule:evenodd; stroke:none; opacity:1" points="5127.81,4164.68 5127.81,3742.61 4943.2,3742.61 4943.2,4164.68 " />
<polyline style="fill:none; stroke:rgb(102,0,0); stroke-width:4; stroke-linecap:butt; stroke-linejoin:miter; stroke-dasharray:0; opacity:1" points="4995.94,4101.36 4985.39,4106.64 4980.12,4122.47 4980.12,4133.02 4985.39,4148.85 5001.22,4159.4 5027.59,4164.68 5053.97,4164.68 5075.07,4159.4 5085.62,4148.85 5090.89,4133.02 5090.89,4127.74 5085.62,4111.92 5075.07,4101.36 5059.24,4096.09 5053.97,4096.09 5038.14,4101.36 5027.59,4111.92 5022.32,4127.74 5022.32,4133.02 5027.59,4148.85 5038.14,4159.4 5053.97,4164.68 " />
<polyline style="fill:none; stroke:rgb(102,0,0); stroke-width:4; stroke-linecap:butt; stroke-linejoin:miter; stroke-dasharray:0; opacity:1" points="5006.49,4074.99 5001.22,4074.99 4990.67,4069.71 4985.39,4064.43 4980.12,4053.88 4980.12,4032.78 4985.39,4022.23 4990.67,4016.95 5001.22,4011.67 5011.77,4011.67 5022.32,4016.95 5038.14,4027.5 5090.89,4080.26 5090.89,4006.4 " />
<polyline style="fill:none; stroke:rgb(102,0,0); stroke-width:4; stroke-linecap:butt; stroke-linejoin:miter; stroke-dasharray:0; opacity:1" points="5006.49,3985.3 5001.22,3985.3 4990.67,3980.02 4985.39,3974.74 4980.12,3964.19 4980.12,3943.09 4985.39,3932.54 4990.67,3927.26 5001.22,3921.99 5011.77,3921.99 5022.32,3927.26 5038.14,3937.81 5090.89,3990.57 5090.89,3916.71 " />
<polyline style="fill:none; stroke:rgb(102,0,0); stroke-width:4; stroke-linecap:butt; stroke-linejoin:miter; stroke-dasharray:0; opacity:1" points="4980.12,3837.57 5090.89,3837.57 " />
<polyline style="fill:none; stroke:rgb(102,0,0); stroke-width:4; stroke-linecap:butt; stroke-linejoin:miter; stroke-dasharray:0; opacity:1" points="4980.12,3837.57 5090.89,3763.71 " />
<polyline style="fill:none; stroke:rgb(102,0,0); stroke-width:4; stroke-linecap:butt; stroke-linejoin:miter; stroke-dasharray:0; opacity:1" points="4980.12,3763.71 5090.89,3763.71 " />
<polyline style="fill:none; stroke:rgb(0,102,0); stroke-width:4; stroke-linecap:butt; stroke-linejoin:miter; stroke-dasharray:0; opacity:1" points="2835.42,3598.89 2912.34,3465.62 2989.26,3598.89 " />
<polyline style="fill:none; stroke:rgb(0,102,0); stroke-width:4; stroke-linecap:butt; stroke-linejoin:miter; stroke-dasharray:0; opacity:1" points="2796.95,3598.89 3027.72,3598.89 " />
<polyline style="fill:none; stroke:rgb(0,102,0); stroke-width:4; stroke-linecap:butt; stroke-linejoin:miter; stroke-dasharray:0; opacity:1" points="2843.11,3598.89 2796.95,3645.05 " />
<polyline style="fill:none; stroke:rgb(0,102,0); stroke-width:4; stroke-linecap:butt; stroke-linejoin:miter; stroke-dasharray:0; opacity:1" points="2889.26,3598.89 2843.11,3645.05 " />
<polyline style="fill:none; stroke:rgb(0,102,0); stroke-width:4; stroke-linecap:butt; stroke-linejoin:miter; stroke-dasharray:0; opacity:1" points="2935.42,3598.89 2889.26,3645.05 " />
<polyline style="fill:none; stroke:rgb(0,102,0); stroke-width:4; stroke-linecap:butt; stroke-linejoin:miter; stroke-dasharray:0; opacity:1" points="2981.57,3598.89 2935.42,3645.05 " />
<polyline style="fill:none; stroke:rgb(0,102,0); stroke-width:4; stroke-linecap:butt; stroke-linejoin:miter; stroke-dasharray:0; opacity:1" points="3027.73,3598.89 2981.57,3645.05 " />
<polyline style="fill:none; stroke:rgb(102,0,0); stroke-width:4; stroke-linecap:butt; stroke-linejoin:miter; stroke-dasharray:0; opacity:1" points="2912.34,4019.59 2912.34,3576.42 " />
<polygon style="fill:rgb(102,0,0); fill-rule:evenodd; stroke:none; opacity:1" points="2856.95,3687.21 2912.34,3576.42 2967.72,3687.21 " />
<polyline style="fill:none; stroke:rgb(102,0,0); stroke-width:4; stroke-linecap:butt; stroke-linejoin:miter; stroke-dasharray:0; opacity:1" points="2856.95,3795.23 2967.72,3795.23 " />
<polygon style="fill:rgb(255,255,255); fill-rule:evenodd; stroke:none; opacity:1" points="2838.49,4169.95 2838.49,3742.61 2653.87,3742.61 2653.87,4169.95 " />
<polyline style="fill:none; stroke:rgb(102,0,0); stroke-width:4; stroke-linecap:butt; stroke-linejoin:miter; stroke-dasharray:0; opacity:1" points="2690.8,4159.4 2690.8,4101.36 2733,4133.02 2733,4117.19 2738.27,4106.64 2743.55,4101.36 2759.37,4096.09 2769.92,4096.09 2785.74,4101.36 2796.29,4111.92 2801.57,4127.74 2801.57,4143.57 2796.29,4159.4 2791.02,4164.68 2780.47,4169.95 " />
<polyline style="fill:none; stroke:rgb(102,0,0); stroke-width:4; stroke-linecap:butt; stroke-linejoin:miter; stroke-dasharray:0; opacity:1" points="2690.8,4006.4 2801.57,4059.16 " />
<polyline style="fill:none; stroke:rgb(102,0,0); stroke-width:4; stroke-linecap:butt; stroke-linejoin:miter; stroke-dasharray:0; opacity:1" points="2690.8,4080.26 2690.8,4006.4 " />
<polyline style="fill:none; stroke:rgb(102,0,0); stroke-width:4; stroke-linecap:butt; stroke-linejoin:miter; stroke-dasharray:0; opacity:1" points="2690.8,3964.19 2696.07,3980.02 2706.62,3985.3 2717.17,3985.3 2727.72,3980.02 2733,3969.47 2738.27,3948.36 2743.55,3932.54 2754.09,3921.99 2764.64,3916.71 2780.47,3916.71 2791.02,3921.99 2796.29,3927.26 2801.57,3943.09 2801.57,3964.19 2796.29,3980.02 2791.02,3985.3 2780.47,3990.57 2764.64,3990.57 2754.09,3985.3 2743.55,3974.74 2738.27,3958.92 2733,3937.81 2727.72,3927.26 2717.17,3921.99 2706.62,3921.99 2696.07,3927.26 2690.8,3943.09 2690.8,3964.19 " />
<polyline style="fill:none; stroke:rgb(102,0,0); stroke-width:4; stroke-linecap:butt; stroke-linejoin:miter; stroke-dasharray:0; opacity:1" points="2690.8,3837.57 2801.57,3837.57 " />
<polyline style="fill:none; stroke:rgb(102,0,0); stroke-width:4; stroke-linecap:butt; stroke-linejoin:miter; stroke-dasharray:0; opacity:1" points="2690.8,3837.57 2801.57,3763.71 " />
<polyline style="fill:none; stroke:rgb(102,0,0); stroke-width:4; stroke-linecap:butt; stroke-linejoin:miter; stroke-dasharray:0; opacity:1" points="2690.8,3763.71 2801.57,3763.71 " />
</g>
</g>
</svg>
