<?xml version="1.0" encoding="UTF-8"?>
<svg xmlns="http://www.w3.org/2000/svg" xmlns:xlink="http://www.w3.org/1999/xlink" width="958.499pt" height="520.5pt" viewBox="0 0 8115 4406" version="1.1">
<g>
<pattern id="pattern0" patternUnits="userSpaceOnUse" x="0" y="0" width="7" height="7">
<line x1="0" y1="3" x2="7" y2="3" style="fill:none; stroke:rgb(0,0,0); opacity:1" />
</pattern>
<clipPath id="cliprect0">
<rect x="1" y="-1" width="8113" height="4407" />
</clipPath>
<g clip-path="url(#cliprect0)">
<polyline style="fill:none; stroke:rgb(255,255,0); stroke-width:4; stroke-linecap:butt; stroke-linejoin:miter; stroke-dasharray:0; opacity:1" points="3629.97,3333.39 5081.88,3333.39 " />
<polyline style="fill:none; stroke:rgb(0,255,255); stroke-width:4; stroke-linecap:butt; stroke-linejoin:miter; stroke-dasharray:0; opacity:1" points="3629.97,3041.11 5081.88,3888.39 " />
<polyline style="fill:none; stroke:rgb(0,255,255); stroke-width:4; stroke-linecap:butt; stroke-linejoin:miter; stroke-dasharray:0; opacity:1" points="3629.97,3333.39 3629.97,3041.11 " />
<polyline style="fill:none; stroke:rgb(255,0,0); stroke-width:4; stroke-linecap:butt; stroke-linejoin:miter; stroke-dasharray:0; opacity:1" points="3670.06,2878.61 3728.08,2878.61 3696.43,2920.82 3712.26,2920.82 3722.81,2926.1 3728.08,2931.37 3733.35,2947.2 3733.35,2957.75 3728.08,2973.58 3717.53,2984.13 3701.71,2989.41 3685.88,2989.41 3670.06,2984.13 3664.78,2978.86 3659.51,2968.3 " />
<polyline style="fill:none; stroke:rgb(255,0,0); stroke-width:4; stroke-linecap:butt; stroke-linejoin:miter; stroke-dasharray:0; opacity:1" points="3754.45,2904.99 3754.45,2899.72 3759.73,2889.17 3765,2883.89 3775.55,2878.61 3796.65,2878.61 3807.2,2883.89 3812.48,2889.17 3817.75,2899.72 3817.75,2910.27 3812.48,2920.82 3801.93,2936.65 3749.18,2989.41 3823.03,2989.41 " />
<polyline style="fill:none; stroke:rgb(255,0,0); stroke-width:4; stroke-linecap:butt; stroke-linejoin:miter; stroke-dasharray:0; opacity:1" points="3865.22,2878.61 3849.4,2883.89 3844.13,2894.44 3844.13,2904.99 3849.4,2915.54 3859.95,2920.82 3881.05,2926.1 3896.87,2931.37 3907.42,2941.92 3912.7,2952.48 3912.7,2968.3 3907.42,2978.86 3902.15,2984.13 3886.32,2989.41 3865.22,2989.41 3849.4,2984.13 3844.13,2978.86 3838.85,2968.3 3838.85,2952.48 3844.13,2941.92 3854.68,2931.37 3870.5,2926.1 3891.6,2920.82 3902.15,2915.54 3907.42,2904.99 3907.42,2894.44 3902.15,2883.89 3886.32,2878.61 3865.22,2878.61 " />
<polyline style="fill:none; stroke:rgb(0,255,255); stroke-width:4; stroke-linecap:butt; stroke-linejoin:miter; stroke-dasharray:0; opacity:1" points="5081.88,3333.39 5081.88,3888.39 " />
<polyline style="fill:none; stroke:rgb(255,0,0); stroke-width:4; stroke-linecap:butt; stroke-linejoin:miter; stroke-dasharray:0; opacity:1" points="4672.55,4003.41 4767.5,4003.41 " />
<polyline style="fill:none; stroke:rgb(255,0,0); stroke-width:4; stroke-linecap:butt; stroke-linejoin:miter; stroke-dasharray:0; opacity:1" points="4851.89,3955.93 4846.62,3945.37 4830.79,3940.1 4820.25,3940.1 4804.42,3945.37 4793.87,3961.2 4788.6,3987.58 4788.6,4013.96 4793.87,4035.06 4804.42,4045.62 4820.25,4050.89 4825.52,4050.89 4841.34,4045.62 4851.89,4035.06 4857.17,4019.24 4857.17,4013.96 4851.89,3998.13 4841.34,3987.58 4825.52,3982.31 4820.25,3982.31 4804.42,3987.58 4793.87,3998.13 4788.6,4013.96 " />
<polyline style="fill:none; stroke:rgb(255,0,0); stroke-width:4; stroke-linecap:butt; stroke-linejoin:miter; stroke-dasharray:0; opacity:1" points="4878.27,3966.48 4878.27,3961.2 4883.54,3950.65 4888.82,3945.37 4899.37,3940.1 4920.47,3940.1 4931.02,3945.37 4936.29,3950.65 4941.57,3961.2 4941.57,3971.75 4936.29,3982.31 4925.74,3998.13 4872.99,4050.89 4946.84,4050.89 " />
<polyline style="fill:none; stroke:rgb(255,0,0); stroke-width:4; stroke-linecap:butt; stroke-linejoin:miter; stroke-dasharray:0; opacity:1" points="4967.94,3966.48 4967.94,3961.2 4973.21,3950.65 4978.49,3945.37 4989.04,3940.1 5010.14,3940.1 5020.69,3945.37 5025.96,3950.65 5031.24,3961.2 5031.24,3971.75 5025.96,3982.31 5015.41,3998.13 4962.66,4050.89 5036.51,4050.89 " />
<polyline style="fill:none; stroke:rgb(255,255,0); stroke-width:4; stroke-linecap:butt; stroke-linejoin:miter; stroke-dasharray:0; opacity:1" points="3140.31,2653.8 3629.97,3333.39 " />
<polyline style="fill:none; stroke:rgb(0,255,255); stroke-width:4; stroke-linecap:butt; stroke-linejoin:miter; stroke-dasharray:0; opacity:1" points="3278.91,2553.89 3768.57,3233.48 " />
<polyline style="fill:none; stroke:rgb(255,0,0); stroke-width:4; stroke-linecap:butt; stroke-linejoin:miter; stroke-dasharray:0; opacity:1" points="3564.41,2708.29 3574.86,2713.77 3596.95,2717.35 3507.08,2782.13 " />
<polyline style="fill:none; stroke:rgb(255,0,0); stroke-width:4; stroke-linecap:butt; stroke-linejoin:miter; stroke-dasharray:0; opacity:1" points="3634.84,2833.11 3618.92,2838.08 3604.19,2835.69 3590.66,2825.94 3587.58,2821.66 3582.61,2805.73 3585,2791 3594.75,2777.47 3599.03,2774.38 3614.95,2769.41 3629.68,2771.8 3643.21,2781.56 3646.29,2785.84 3651.27,2801.76 3648.88,2816.49 3634.84,2833.11 3613.45,2848.53 3588.97,2859.68 3569.96,2860.37 3556.43,2850.61 3550.26,2842.05 3545.29,2826.13 3550.76,2815.68 " />
<polyline style="fill:none; stroke:rgb(255,0,0); stroke-width:4; stroke-linecap:butt; stroke-linejoin:miter; stroke-dasharray:0; opacity:1" points="3658.82,2848.34 3663.1,2845.26 3674.74,2843.37 3682.11,2844.56 3692.55,2850.04 3704.89,2867.16 3706.78,2878.8 3705.58,2886.17 3700.11,2896.62 3691.55,2902.79 3679.91,2904.68 3660.9,2905.37 3587.27,2893.41 3630.44,2953.34 " />
<polyline style="fill:none; stroke:rgb(0,255,255); stroke-width:4; stroke-linecap:butt; stroke-linejoin:miter; stroke-dasharray:0; opacity:1" points="3140.31,2653.8 3278.91,2553.89 " />
<polyline style="fill:none; stroke:rgb(0,255,255); stroke-width:4; stroke-linecap:butt; stroke-linejoin:miter; stroke-dasharray:0; opacity:1" points="3629.97,3333.39 3768.57,3233.48 " />
<polyline style="fill:none; stroke:rgb(255,255,0); stroke-width:4; stroke-linecap:butt; stroke-linejoin:miter; stroke-dasharray:0; opacity:1" points="3140.31,2653.8 3032.12,3333.39 " />
<polyline style="fill:none; stroke:rgb(0,255,255); stroke-width:4; stroke-linecap:butt; stroke-linejoin:miter; stroke-dasharray:0; opacity:1" points="3088.01,2645.47 2979.83,3325.06 " />
<polyline style="fill:none; stroke:rgb(255,0,0); stroke-width:4; stroke-linecap:butt; stroke-linejoin:miter; stroke-dasharray:0; opacity:1" points="2869.33,2985.76 2861.03,3037.87 2907.09,3050.54 2902.71,3044.5 2899.99,3028.04 2902.47,3012.41 2910.17,2997.61 2922.25,2988.85 2938.71,2986.13 2949.12,2987.79 2963.92,2995.49 2972.68,3007.57 2975.4,3024.03 2972.91,3039.66 2965.22,3054.46 2959.18,3058.84 2947.93,3062.39 " />
<polyline style="fill:none; stroke:rgb(255,0,0); stroke-width:4; stroke-linecap:butt; stroke-linejoin:miter; stroke-dasharray:0; opacity:1" points="2920.72,2897.79 2935.52,2905.49 2944.28,2917.56 2947,2934.03 2946.17,2939.24 2938.47,2954.04 2926.4,2962.8 2909.94,2965.52 2904.73,2964.69 2889.93,2956.99 2881.17,2944.91 2878.45,2928.45 2879.28,2923.24 2886.98,2908.44 2899.05,2899.68 2920.72,2897.79 2946.77,2901.93 2971.98,2911.29 2985.95,2924.2 2988.67,2940.66 2987.01,2951.08 2979.32,2965.88 2968.07,2969.43 " />
<polyline style="fill:none; stroke:rgb(0,255,255); stroke-width:4; stroke-linecap:butt; stroke-linejoin:miter; stroke-dasharray:0; opacity:1" points="3140.31,2653.8 3088.01,2645.47 " />
<polyline style="fill:none; stroke:rgb(0,255,255); stroke-width:4; stroke-linecap:butt; stroke-linejoin:miter; stroke-dasharray:0; opacity:1" points="3032.12,3333.39 2979.83,3325.06 " />
<polyline style="fill:none; stroke:rgb(255,255,0); stroke-width:4; stroke-linecap:butt; stroke-linejoin:miter; stroke-dasharray:0; opacity:1" points="3390.83,1070.61 3140.31,2653.8 " />
<polyline style="fill:none; stroke:rgb(0,255,255); stroke-width:4; stroke-linecap:butt; stroke-linejoin:miter; stroke-dasharray:0; opacity:1" points="3383.95,1069.52 3133.42,2652.71 " />
<polyline style="fill:none; stroke:rgb(255,0,0); stroke-width:4; stroke-linecap:butt; stroke-linejoin:miter; stroke-dasharray:0; opacity:1" points="3095.33,1853.95 3098.07,1870.41 3107.66,1877.27 3118.08,1878.92 3129.33,1875.36 3136.19,1865.76 3144.7,1845.74 3152.38,1830.93 3164.45,1822.16 3175.69,1818.6 3191.32,1821.07 3200.92,1827.93 3205.3,1833.97 3208.04,1850.43 3204.74,1871.27 3197.06,1886.08 3191.02,1890.46 3179.78,1894.03 3164.15,1891.55 3154.55,1884.69 3145.78,1872.62 3143.05,1856.16 3141.14,1834.49 3137.57,1823.25 3127.98,1816.39 3117.56,1814.74 3106.32,1818.3 3098.63,1833.11 3095.33,1853.95 " />
<polyline style="fill:none; stroke:rgb(0,255,255); stroke-width:4; stroke-linecap:butt; stroke-linejoin:miter; stroke-dasharray:0; opacity:1" points="3390.83,1070.61 3383.95,1069.52 " />
<polyline style="fill:none; stroke:rgb(0,255,255); stroke-width:4; stroke-linecap:butt; stroke-linejoin:miter; stroke-dasharray:0; opacity:1" points="3140.31,2653.8 3133.42,2652.71 " />
<polyline style="fill:none; stroke:rgb(0,255,0); stroke-width:4; stroke-linecap:butt; stroke-linejoin:miter; stroke-dasharray:0; opacity:1" points="5004.95,3466.65 5081.88,3333.39 5158.8,3466.65 " />
<polyline style="fill:none; stroke:rgb(0,255,0); stroke-width:4; stroke-linecap:butt; stroke-linejoin:miter; stroke-dasharray:0; opacity:1" points="4966.49,3466.65 5197.26,3466.65 " />
<polyline style="fill:none; stroke:rgb(0,255,0); stroke-width:4; stroke-linecap:butt; stroke-linejoin:miter; stroke-dasharray:0; opacity:1" points="4966.49,3512.81 5197.26,3512.81 " />
<polyline style="fill:none; stroke:rgb(0,255,0); stroke-width:4; stroke-linecap:butt; stroke-linejoin:miter; stroke-dasharray:0; opacity:1" points="2955.2,3466.65 3032.12,3333.39 3109.05,3466.65 " />
<polyline style="fill:none; stroke:rgb(0,255,0); stroke-width:4; stroke-linecap:butt; stroke-linejoin:miter; stroke-dasharray:0; opacity:1" points="2916.74,3466.65 3147.51,3466.65 " />
<polyline style="fill:none; stroke:rgb(0,255,0); stroke-width:4; stroke-linecap:butt; stroke-linejoin:miter; stroke-dasharray:0; opacity:1" points="2962.9,3466.65 2916.74,3512.81 " />
<polyline style="fill:none; stroke:rgb(0,255,0); stroke-width:4; stroke-linecap:butt; stroke-linejoin:miter; stroke-dasharray:0; opacity:1" points="3009.05,3466.65 2962.9,3512.81 " />
<polyline style="fill:none; stroke:rgb(0,255,0); stroke-width:4; stroke-linecap:butt; stroke-linejoin:miter; stroke-dasharray:0; opacity:1" points="3055.2,3466.65 3009.05,3512.81 " />
<polyline style="fill:none; stroke:rgb(0,255,0); stroke-width:4; stroke-linecap:butt; stroke-linejoin:miter; stroke-dasharray:0; opacity:1" points="3101.36,3466.65 3055.2,3512.81 " />
<polyline style="fill:none; stroke:rgb(0,255,0); stroke-width:4; stroke-linecap:butt; stroke-linejoin:miter; stroke-dasharray:0; opacity:1" points="3147.51,3466.65 3101.36,3512.81 " />
</g>
</g>
</svg>
