<?xml version="1.0" encoding="UTF-8"?>
<svg xmlns="http://www.w3.org/2000/svg" xmlns:xlink="http://www.w3.org/1999/xlink" width="958.499pt" height="520.5pt" viewBox="0 0 8115 4406" version="1.1">
<g>
<pattern id="pattern0" patternUnits="userSpaceOnUse" x="0" y="0" width="7" height="7">
<line x1="0" y1="3" x2="7" y2="3" style="fill:none; stroke:rgb(0,0,0); opacity:1" />
</pattern>
<clipPath id="cliprect0">
<rect x="1" y="-1" width="8113" height="4407" />
</clipPath>
<g clip-path="url(#cliprect0)">
<polyline style="fill:none; stroke:rgb(102,102,0); stroke-width:4; stroke-linecap:butt; stroke-linejoin:miter; stroke-dasharray:0; opacity:1" points="3619.81,3360.31 5106.27,3360.31 " />
<polyline style="fill:none; stroke:rgb(0,0,255); stroke-width:4; stroke-linecap:butt; stroke-linejoin:miter; stroke-dasharray:0; opacity:1" points="3619.81,3849.94 3635.79,3861.47 3651.77,3872.64 3667.76,3883.44 3683.74,3893.87 3699.72,3903.94 3715.71,3913.65 3731.69,3922.99 3747.67,3931.97 3763.66,3940.58 3779.64,3948.82 3795.62,3956.7 3811.61,3964.22 3827.59,3971.37 3843.57,3978.15 3859.56,3984.57 3875.54,3990.62 3891.52,3996.31 3907.51,4001.64 3923.49,4006.6 3939.47,4011.19 3955.46,4015.42 3971.44,4019.28 3987.42,4022.78 4003.41,4025.91 4019.39,4028.68 4035.38,4031.08 4051.36,4033.12 4067.34,4034.79 4083.33,4036.1 4099.31,4037.04 4115.29,4037.62 4131.28,4037.83 4147.26,4037.68 4163.24,4037.16 4179.23,4036.28 4195.21,4035.03 4211.19,4033.42 4227.18,4031.44 4243.16,4029.09 4259.14,4026.39 4275.13,4023.31 4291.11,4019.87 4307.09,4016.07 4323.08,4011.9 4339.06,4007.36 4355.04,4002.46 4371.03,3997.2 4387.01,3991.57 4402.99,3985.58 4418.98,3979.21 4434.96,3972.49 4450.95,3965.4 4466.93,3957.94 4482.91,3950.12 4498.9,3941.94 4514.88,3933.39 4530.86,3924.47 4546.85,3915.19 4562.83,3905.54 4578.81,3895.53 4594.8,3885.15 4610.78,3874.41 4626.76,3863.31 4642.75,3851.83 4658.73,3840 4674.71,3827.79 4690.7,3815.23 4706.68,3802.29 4722.66,3789 4738.65,3775.33 4754.63,3761.31 4770.61,3746.91 4786.6,3732.15 4802.58,3717.03 4818.56,3701.54 4834.55,3685.69 4850.53,3669.47 4866.52,3652.89 4882.5,3635.94 4898.48,3618.62 4914.47,3600.95 4930.45,3582.9 4946.43,3564.49 4962.42,3545.72 4978.4,3526.58 4994.38,3507.07 5010.37,3487.2 5026.35,3466.97 5042.33,3446.37 5058.32,3425.4 5074.3,3404.07 5090.28,3382.38 5106.27,3360.31 " />
<polyline style="fill:none; stroke:rgb(0,0,255); stroke-width:4; stroke-linecap:butt; stroke-linejoin:miter; stroke-dasharray:0; opacity:1" points="3619.81,3360.31 3619.81,3849.94 " />
<polyline style="fill:none; stroke:rgb(255,0,0); stroke-width:4; stroke-linecap:butt; stroke-linejoin:miter; stroke-dasharray:0; opacity:1" points="3649.34,3922.75 3659.89,3917.47 3675.72,3901.64 3675.72,4012.44 " />
<polyline style="fill:none; stroke:rgb(255,0,0); stroke-width:4; stroke-linecap:butt; stroke-linejoin:miter; stroke-dasharray:0; opacity:1" points="3723.19,3922.75 3733.74,3917.47 3749.57,3901.64 3749.57,4012.44 " />
<polyline style="fill:none; stroke:rgb(255,0,0); stroke-width:4; stroke-linecap:butt; stroke-linejoin:miter; stroke-dasharray:0; opacity:1" points="3807.59,3901.64 3865.61,3901.64 3833.96,3943.85 3849.79,3943.85 3860.34,3949.13 3865.61,3954.4 3870.89,3970.23 3870.89,3980.78 3865.61,3996.61 3855.06,4007.16 3839.24,4012.44 3823.41,4012.44 3807.59,4007.16 3802.31,4001.89 3797.04,3991.33 " />
<polyline style="fill:none; stroke:rgb(0,0,255); stroke-width:4; stroke-linecap:butt; stroke-linejoin:miter; stroke-dasharray:0; opacity:1" points="5106.27,3360.31 5106.27,3360.31 " />
<polyline style="fill:none; stroke:rgb(0,0,255); stroke-width:4; stroke-linecap:butt; stroke-linejoin:miter; stroke-dasharray:0; opacity:1" points="4132.57,3360.31 4132.57,4037.83 " />
<polyline style="fill:none; stroke:rgb(255,0,0); stroke-width:4; stroke-linecap:butt; stroke-linejoin:miter; stroke-dasharray:0; opacity:1" points="4008.61,4110.64 4019.16,4105.37 4034.99,4089.54 4034.99,4200.33 " />
<polyline style="fill:none; stroke:rgb(255,0,0); stroke-width:4; stroke-linecap:butt; stroke-linejoin:miter; stroke-dasharray:0; opacity:1" points="4145.76,4089.54 4093.01,4089.54 4087.74,4137.02 4093.01,4131.74 4108.83,4126.47 4124.66,4126.47 4140.48,4131.74 4151.03,4142.3 4156.31,4158.12 4156.31,4168.68 4151.03,4184.5 4140.48,4195.06 4124.66,4200.33 4108.83,4200.33 4093.01,4195.06 4087.74,4189.78 4082.46,4179.23 " />
<polyline style="fill:none; stroke:rgb(255,0,0); stroke-width:4; stroke-linecap:butt; stroke-linejoin:miter; stroke-dasharray:0; opacity:1" points="4235.43,4105.37 4230.16,4094.81 4214.33,4089.54 4203.78,4089.54 4187.96,4094.81 4177.41,4110.64 4172.13,4137.02 4172.13,4163.4 4177.41,4184.5 4187.96,4195.06 4203.78,4200.33 4209.06,4200.33 4224.88,4195.06 4235.43,4184.5 4240.7,4168.68 4240.7,4163.4 4235.43,4147.57 4224.88,4137.02 4209.06,4131.74 4203.78,4131.74 4187.96,4137.02 4177.41,4147.57 4172.13,4163.4 " />
<polyline style="fill:none; stroke:rgb(102,102,0); stroke-width:4; stroke-linecap:butt; stroke-linejoin:miter; stroke-dasharray:0; opacity:1" points="3118.49,2664.55 3619.81,3360.31 " />
<polyline style="fill:none; stroke:rgb(0,0,255); stroke-width:4; stroke-linecap:butt; stroke-linejoin:miter; stroke-dasharray:0; opacity:1" points="3019.35,2736.01 3222.66,3646.58 " />
<polyline style="fill:none; stroke:rgb(0,0,255); stroke-width:4; stroke-linecap:butt; stroke-linejoin:miter; stroke-dasharray:0; opacity:1" points="3118.49,2664.55 3019.35,2736.01 " />
<polyline style="fill:none; stroke:rgb(255,0,0); stroke-width:4; stroke-linecap:butt; stroke-linejoin:miter; stroke-dasharray:0; opacity:1" points="2976.37,2809.91 2980.65,2806.83 2992.29,2804.94 2999.65,2806.13 3010.1,2811.61 3022.44,2828.73 3024.33,2840.38 3023.13,2847.74 3017.66,2858.19 3009.1,2864.36 2997.45,2866.25 2978.45,2866.94 2904.82,2854.99 2947.99,2914.91 " />
<polyline style="fill:none; stroke:rgb(255,0,0); stroke-width:4; stroke-linecap:butt; stroke-linejoin:miter; stroke-dasharray:0; opacity:1" points="3062.53,2884.37 3049,2874.62 3037.36,2876.51 3028.8,2882.67 3023.32,2893.12 3025.21,2904.77 3033.27,2924.97 3038.24,2940.9 3035.85,2955.63 3030.37,2966.08 3017.54,2975.33 3005.89,2977.22 2998.53,2976.03 2985,2966.27 2972.66,2949.15 2967.69,2933.22 2968.89,2925.86 2974.36,2915.41 2987.2,2906.16 2998.84,2904.27 3013.57,2906.66 3027.1,2916.41 3043.71,2930.45 3054.16,2935.93 3065.8,2934.04 3074.36,2927.87 3079.84,2917.42 3074.86,2901.49 3062.53,2884.37 " />
<polyline style="fill:none; stroke:rgb(0,0,255); stroke-width:4; stroke-linecap:butt; stroke-linejoin:miter; stroke-dasharray:0; opacity:1" points="3619.81,3360.31 3222.66,3646.58 " />
<polyline style="fill:none; stroke:rgb(255,0,0); stroke-width:4; stroke-linecap:butt; stroke-linejoin:miter; stroke-dasharray:0; opacity:1" points="3007.56,3472.57 3018.01,3478.05 3040.1,3481.63 2950.23,3546.41 " />
<polyline style="fill:none; stroke:rgb(255,0,0); stroke-width:4; stroke-linecap:butt; stroke-linejoin:miter; stroke-dasharray:0; opacity:1" points="3050.74,3532.49 3061.18,3537.97 3083.27,3541.56 2993.41,3606.33 " />
<polyline style="fill:none; stroke:rgb(255,0,0); stroke-width:4; stroke-linecap:butt; stroke-linejoin:miter; stroke-dasharray:0; opacity:1" points="3117.2,3588.64 3151.12,3635.72 3098.38,3634.72 3107.63,3647.56 3109.52,3659.2 3108.33,3666.57 3098.57,3680.1 3090.01,3686.27 3074.09,3691.24 3059.37,3688.85 3045.83,3679.1 3036.58,3666.25 3031.61,3650.33 3032.81,3642.96 3038.28,3632.52 " />
<polyline style="fill:none; stroke:rgb(102,102,0); stroke-width:4; stroke-linecap:butt; stroke-linejoin:miter; stroke-dasharray:0; opacity:1" points="3118.49,2664.55 3007.73,3360.31 " />
<polyline style="fill:none; stroke:rgb(0,0,255); stroke-width:4; stroke-linecap:butt; stroke-linejoin:miter; stroke-dasharray:0; opacity:1" points="3210.86,2679.26 3007.73,3360.31 " />
<polyline style="fill:none; stroke:rgb(0,0,255); stroke-width:4; stroke-linecap:butt; stroke-linejoin:miter; stroke-dasharray:0; opacity:1" points="3118.49,2664.55 3210.86,2679.26 " />
<polyline style="fill:none; stroke:rgb(255,0,0); stroke-width:4; stroke-linecap:butt; stroke-linejoin:miter; stroke-dasharray:0; opacity:1" points="3255.94,2892.65 3250.73,2891.82 3241.14,2884.95 3236.76,2878.91 3233.21,2867.66 3236.53,2846.82 3243.4,2837.23 3249.44,2832.85 3260.68,2829.3 3271.1,2830.96 3280.69,2837.83 3294.66,2850.74 3338.46,2911.13 3350.07,2838.19 " />
<polyline style="fill:none; stroke:rgb(255,0,0); stroke-width:4; stroke-linecap:butt; stroke-linejoin:miter; stroke-dasharray:0; opacity:1" points="3270.04,2804.08 3264.83,2803.25 3255.24,2796.38 3250.86,2790.34 3247.31,2779.09 3250.63,2758.25 3257.5,2748.66 3263.54,2744.28 3274.78,2740.72 3285.2,2742.38 3294.79,2749.25 3308.76,2762.16 3352.56,2822.56 3364.17,2749.62 " />
<polyline style="fill:none; stroke:rgb(0,0,255); stroke-width:4; stroke-linecap:butt; stroke-linejoin:miter; stroke-dasharray:0; opacity:1" points="3007.73,3360.31 3007.73,3360.31 " />
<polyline style="fill:none; stroke:rgb(102,102,0); stroke-width:4; stroke-linecap:butt; stroke-linejoin:miter; stroke-dasharray:0; opacity:1" points="3374.98,1043.69 3118.49,2664.55 " />
<polyline style="fill:none; stroke:rgb(0,0,255); stroke-width:4; stroke-linecap:butt; stroke-linejoin:miter; stroke-dasharray:0; opacity:1" points="3374.98,1043.69 3090.17,2660.07 " />
<polyline style="fill:none; stroke:rgb(0,0,255); stroke-width:4; stroke-linecap:butt; stroke-linejoin:miter; stroke-dasharray:0; opacity:1" points="3374.98,1043.69 3374.98,1043.69 " />
<polyline style="fill:none; stroke:rgb(0,0,255); stroke-width:4; stroke-linecap:butt; stroke-linejoin:miter; stroke-dasharray:0; opacity:1" points="3118.49,2664.55 3090.17,2660.07 " />
<polyline style="fill:none; stroke:rgb(255,0,0); stroke-width:4; stroke-linecap:butt; stroke-linejoin:miter; stroke-dasharray:0; opacity:1" points="2945.87,2532.53 3047.03,2601.96 " />
<polyline style="fill:none; stroke:rgb(255,0,0); stroke-width:4; stroke-linecap:butt; stroke-linejoin:miter; stroke-dasharray:0; opacity:1" points="2934.32,2605.48 2945.87,2532.53 " />
<polyline style="fill:none; stroke:rgb(0,102,0); stroke-width:4; stroke-linecap:butt; stroke-linejoin:miter; stroke-dasharray:0; opacity:1" points="5029.34,3493.58 5106.27,3360.31 5183.19,3493.58 " />
<polyline style="fill:none; stroke:rgb(0,102,0); stroke-width:4; stroke-linecap:butt; stroke-linejoin:miter; stroke-dasharray:0; opacity:1" points="4990.88,3493.58 5221.65,3493.58 " />
<polyline style="fill:none; stroke:rgb(0,102,0); stroke-width:4; stroke-linecap:butt; stroke-linejoin:miter; stroke-dasharray:0; opacity:1" points="4990.88,3539.74 5221.65,3539.74 " />
<polyline style="fill:none; stroke:rgb(102,0,0); stroke-width:4; stroke-linecap:butt; stroke-linejoin:miter; stroke-dasharray:0; opacity:1" points="5106.27,3914.28 5106.27,3471.11 " />
<polygon style="fill:rgb(102,0,0); fill-rule:evenodd; stroke:none; opacity:1" points="5050.88,3581.9 5106.27,3471.11 5161.65,3581.9 " />
<polyline style="fill:none; stroke:rgb(102,0,0); stroke-width:4; stroke-linecap:butt; stroke-linejoin:miter; stroke-dasharray:0; opacity:1" points="5050.88,3689.92 5161.65,3689.92 " />
<polygon style="fill:rgb(255,255,255); fill-rule:evenodd; stroke:none; opacity:1" points="5032.42,4059.37 5032.42,3637.3 4847.8,3637.3 4847.8,4059.37 " />
<polyline style="fill:none; stroke:rgb(102,0,0); stroke-width:4; stroke-linecap:butt; stroke-linejoin:miter; stroke-dasharray:0; opacity:1" points="4900.55,3996.06 4890,4001.33 4884.73,4017.16 4884.73,4027.71 4890,4043.54 4905.82,4054.09 4932.2,4059.37 4958.57,4059.37 4979.67,4054.09 4990.22,4043.54 4995.5,4027.71 4995.5,4022.44 4990.22,4006.61 4979.67,3996.06 4963.85,3990.78 4958.57,3990.78 4942.75,3996.06 4932.2,4006.61 4926.92,4022.44 4926.92,4027.71 4932.2,4043.54 4942.75,4054.09 4958.57,4059.37 " />
<polyline style="fill:none; stroke:rgb(102,0,0); stroke-width:4; stroke-linecap:butt; stroke-linejoin:miter; stroke-dasharray:0; opacity:1" points="4911.1,3969.68 4905.82,3969.68 4895.28,3964.4 4890,3959.13 4884.73,3948.57 4884.73,3927.47 4890,3916.92 4895.28,3911.64 4905.82,3906.37 4916.37,3906.37 4926.92,3911.64 4942.75,3922.19 4995.5,3974.95 4995.5,3901.09 " />
<polyline style="fill:none; stroke:rgb(102,0,0); stroke-width:4; stroke-linecap:butt; stroke-linejoin:miter; stroke-dasharray:0; opacity:1" points="4911.1,3879.99 4905.82,3879.99 4895.28,3874.71 4890,3869.44 4884.73,3858.88 4884.73,3837.78 4890,3827.23 4895.28,3821.95 4905.82,3816.68 4916.37,3816.68 4926.92,3821.95 4942.75,3832.5 4995.5,3885.26 4995.5,3811.4 " />
<polyline style="fill:none; stroke:rgb(102,0,0); stroke-width:4; stroke-linecap:butt; stroke-linejoin:miter; stroke-dasharray:0; opacity:1" points="4884.73,3732.26 4995.5,3732.26 " />
<polyline style="fill:none; stroke:rgb(102,0,0); stroke-width:4; stroke-linecap:butt; stroke-linejoin:miter; stroke-dasharray:0; opacity:1" points="4884.73,3732.26 4995.5,3658.4 " />
<polyline style="fill:none; stroke:rgb(102,0,0); stroke-width:4; stroke-linecap:butt; stroke-linejoin:miter; stroke-dasharray:0; opacity:1" points="4884.73,3658.4 4995.5,3658.4 " />
<polyline style="fill:none; stroke:rgb(0,102,0); stroke-width:4; stroke-linecap:butt; stroke-linejoin:miter; stroke-dasharray:0; opacity:1" points="2930.81,3493.58 3007.73,3360.31 3084.66,3493.58 " />
<polyline style="fill:none; stroke:rgb(0,102,0); stroke-width:4; stroke-linecap:butt; stroke-linejoin:miter; stroke-dasharray:0; opacity:1" points="2892.35,3493.58 3123.12,3493.58 " />
<polyline style="fill:none; stroke:rgb(0,102,0); stroke-width:4; stroke-linecap:butt; stroke-linejoin:miter; stroke-dasharray:0; opacity:1" points="2938.5,3493.58 2892.35,3539.74 " />
<polyline style="fill:none; stroke:rgb(0,102,0); stroke-width:4; stroke-linecap:butt; stroke-linejoin:miter; stroke-dasharray:0; opacity:1" points="2984.66,3493.58 2938.5,3539.74 " />
<polyline style="fill:none; stroke:rgb(0,102,0); stroke-width:4; stroke-linecap:butt; stroke-linejoin:miter; stroke-dasharray:0; opacity:1" points="3030.81,3493.58 2984.66,3539.74 " />
<polyline style="fill:none; stroke:rgb(0,102,0); stroke-width:4; stroke-linecap:butt; stroke-linejoin:miter; stroke-dasharray:0; opacity:1" points="3076.97,3493.58 3030.81,3539.74 " />
<polyline style="fill:none; stroke:rgb(0,102,0); stroke-width:4; stroke-linecap:butt; stroke-linejoin:miter; stroke-dasharray:0; opacity:1" points="3123.12,3493.58 3076.97,3539.74 " />
<polyline style="fill:none; stroke:rgb(102,0,0); stroke-width:4; stroke-linecap:butt; stroke-linejoin:miter; stroke-dasharray:0; opacity:1" points="3007.73,3914.28 3007.73,3471.11 " />
<polygon style="fill:rgb(102,0,0); fill-rule:evenodd; stroke:none; opacity:1" points="2952.35,3581.9 3007.73,3471.11 3063.12,3581.9 " />
<polyline style="fill:none; stroke:rgb(102,0,0); stroke-width:4; stroke-linecap:butt; stroke-linejoin:miter; stroke-dasharray:0; opacity:1" points="2952.35,3689.92 3063.12,3689.92 " />
<polygon style="fill:rgb(255,255,255); fill-rule:evenodd; stroke:none; opacity:1" points="2933.89,4064.64 2933.89,3637.3 2749.27,3637.3 2749.27,4064.64 " />
<polyline style="fill:none; stroke:rgb(102,0,0); stroke-width:4; stroke-linecap:butt; stroke-linejoin:miter; stroke-dasharray:0; opacity:1" points="2786.19,4054.09 2786.19,3996.06 2828.39,4027.71 2828.39,4011.88 2833.66,4001.33 2838.94,3996.06 2854.76,3990.78 2865.31,3990.78 2881.14,3996.06 2891.69,4006.61 2896.96,4022.44 2896.96,4038.26 2891.69,4054.09 2886.41,4059.37 2875.86,4064.64 " />
<polyline style="fill:none; stroke:rgb(102,0,0); stroke-width:4; stroke-linecap:butt; stroke-linejoin:miter; stroke-dasharray:0; opacity:1" points="2786.19,3901.09 2896.96,3953.85 " />
<polyline style="fill:none; stroke:rgb(102,0,0); stroke-width:4; stroke-linecap:butt; stroke-linejoin:miter; stroke-dasharray:0; opacity:1" points="2786.19,3974.95 2786.19,3901.09 " />
<polyline style="fill:none; stroke:rgb(102,0,0); stroke-width:4; stroke-linecap:butt; stroke-linejoin:miter; stroke-dasharray:0; opacity:1" points="2786.19,3858.88 2791.47,3874.71 2802.02,3879.99 2812.57,3879.99 2823.11,3874.71 2828.39,3864.16 2833.66,3843.06 2838.94,3827.23 2849.49,3816.68 2860.04,3811.4 2875.86,3811.4 2886.41,3816.68 2891.69,3821.95 2896.96,3837.78 2896.96,3858.88 2891.69,3874.71 2886.41,3879.99 2875.86,3885.26 2860.04,3885.26 2849.49,3879.99 2838.94,3869.44 2833.66,3853.61 2828.39,3832.5 2823.11,3821.95 2812.57,3816.68 2802.02,3816.68 2791.47,3821.95 2786.19,3837.78 2786.19,3858.88 " />
<polyline style="fill:none; stroke:rgb(102,0,0); stroke-width:4; stroke-linecap:butt; stroke-linejoin:miter; stroke-dasharray:0; opacity:1" points="2786.19,3732.26 2896.96,3732.26 " />
<polyline style="fill:none; stroke:rgb(102,0,0); stroke-width:4; stroke-linecap:butt; stroke-linejoin:miter; stroke-dasharray:0; opacity:1" points="2786.19,3732.26 2896.96,3658.4 " />
<polyline style="fill:none; stroke:rgb(102,0,0); stroke-width:4; stroke-linecap:butt; stroke-linejoin:miter; stroke-dasharray:0; opacity:1" points="2786.19,3658.4 2896.96,3658.4 " />
</g>
</g>
</svg>
