<?xml version="1.0" encoding="UTF-8"?>
<svg xmlns="http://www.w3.org/2000/svg" xmlns:xlink="http://www.w3.org/1999/xlink" width="958.499pt" height="520.5pt" viewBox="0 0 8115 4406" version="1.1">
<g>
<pattern id="pattern0" patternUnits="userSpaceOnUse" x="0" y="0" width="7" height="7">
<line x1="0" y1="3" x2="7" y2="3" style="fill:none; stroke:rgb(0,0,0); opacity:1" />
</pattern>
<clipPath id="cliprect0">
<rect x="1" y="-1" width="8113" height="4407" />
</clipPath>
<g clip-path="url(#cliprect0)">
<polyline style="fill:none; stroke:rgb(255,255,0); stroke-width:4; stroke-linecap:butt; stroke-linejoin:miter; stroke-dasharray:0; opacity:1" points="3629.97,3333.39 5081.88,3333.39 " />
<polyline style="fill:none; stroke:rgb(0,255,255); stroke-width:4; stroke-linecap:butt; stroke-linejoin:miter; stroke-dasharray:0; opacity:1" points="3629.97,3333.39 5081.88,3333.39 " />
<polyline style="fill:none; stroke:rgb(0,255,255); stroke-width:4; stroke-linecap:butt; stroke-linejoin:miter; stroke-dasharray:0; opacity:1" points="3629.97,3333.39 3629.97,3333.39 " />
<polyline style="fill:none; stroke:rgb(0,255,255); stroke-width:4; stroke-linecap:butt; stroke-linejoin:miter; stroke-dasharray:0; opacity:1" points="5081.88,3333.39 5081.88,3333.39 " />
<polyline style="fill:none; stroke:rgb(255,255,0); stroke-width:4; stroke-linecap:butt; stroke-linejoin:miter; stroke-dasharray:0; opacity:1" points="3140.31,2653.8 3629.97,3333.39 " />
<polyline style="fill:none; stroke:rgb(0,255,255); stroke-width:4; stroke-linecap:butt; stroke-linejoin:miter; stroke-dasharray:0; opacity:1" points="3461.17,2422.51 3950.83,3102.1 " />
<polyline style="fill:none; stroke:rgb(255,0,0); stroke-width:4; stroke-linecap:butt; stroke-linejoin:miter; stroke-dasharray:0; opacity:1" points="3743.94,2582.14 3748.22,2579.05 3759.86,2577.17 3767.22,2578.36 3777.67,2583.84 3790,2600.96 3791.89,2612.6 3790.7,2619.97 3785.22,2630.42 3776.66,2636.59 3765.02,2638.47 3746.02,2639.17 3672.38,2627.21 3715.56,2687.14 " />
<polyline style="fill:none; stroke:rgb(255,0,0); stroke-width:4; stroke-linecap:butt; stroke-linejoin:miter; stroke-dasharray:0; opacity:1" points="3838.85,2695.82 3844.32,2685.37 3839.35,2669.44 3833.18,2660.88 3819.65,2651.12 3800.64,2651.82 3776.16,2662.96 3754.77,2678.38 3740.73,2695 3738.34,2709.73 3743.31,2725.66 3746.4,2729.94 3759.93,2739.69 3774.66,2742.08 3790.58,2737.11 3794.86,2734.03 3804.61,2720.49 3807,2705.76 3802.03,2689.84 3798.95,2685.56 3785.41,2675.8 3770.69,2673.41 3754.77,2678.38 " />
<polyline style="fill:none; stroke:rgb(255,0,0); stroke-width:4; stroke-linecap:butt; stroke-linejoin:miter; stroke-dasharray:0; opacity:1" points="3888.19,2764.3 3893.66,2753.85 3888.69,2737.92 3882.52,2729.36 3868.99,2719.61 3849.99,2720.3 3825.51,2731.44 3804.11,2746.87 3790.08,2763.49 3787.69,2778.21 3792.66,2794.14 3795.74,2798.42 3809.27,2808.18 3824,2810.57 3839.92,2805.59 3844.2,2802.51 3853.96,2788.97 3856.35,2774.25 3851.37,2758.32 3848.29,2754.04 3834.76,2744.28 3820.03,2741.89 3804.11,2746.87 " />
<polyline style="fill:none; stroke:rgb(0,255,255); stroke-width:4; stroke-linecap:butt; stroke-linejoin:miter; stroke-dasharray:0; opacity:1" points="3140.31,2653.8 3461.17,2422.51 " />
<polyline style="fill:none; stroke:rgb(0,255,255); stroke-width:4; stroke-linecap:butt; stroke-linejoin:miter; stroke-dasharray:0; opacity:1" points="3629.97,3333.39 3950.83,3102.1 " />
<polyline style="fill:none; stroke:rgb(255,255,0); stroke-width:4; stroke-linecap:butt; stroke-linejoin:miter; stroke-dasharray:0; opacity:1" points="3140.31,2653.8 3032.12,3333.39 " />
<polyline style="fill:none; stroke:rgb(0,255,255); stroke-width:4; stroke-linecap:butt; stroke-linejoin:miter; stroke-dasharray:0; opacity:1" points="3688.3,2741.06 3580.12,3420.66 " />
<polyline style="fill:none; stroke:rgb(255,0,0); stroke-width:4; stroke-linecap:butt; stroke-linejoin:miter; stroke-dasharray:0; opacity:1" points="3717.5,3289.12 3732.42,3195.33 " />
<polyline style="fill:none; stroke:rgb(255,0,0); stroke-width:4; stroke-linecap:butt; stroke-linejoin:miter; stroke-dasharray:0; opacity:1" points="3674.89,3154.12 3684.01,3096.8 3720.71,3134.7 3723.2,3119.07 3730.07,3109.48 3736.11,3105.1 3752.56,3102.38 3762.98,3104.04 3777.78,3111.74 3786.54,3123.82 3789.26,3140.28 3786.77,3155.91 3779.07,3170.71 3773.04,3175.09 3761.79,3178.64 " />
<polyline style="fill:none; stroke:rgb(255,0,0); stroke-width:4; stroke-linecap:butt; stroke-linejoin:miter; stroke-dasharray:0; opacity:1" points="3698.94,3003.02 3800.04,3072.54 " />
<polyline style="fill:none; stroke:rgb(255,0,0); stroke-width:4; stroke-linecap:butt; stroke-linejoin:miter; stroke-dasharray:0; opacity:1" points="3687.33,3075.96 3698.94,3003.02 " />
<polyline style="fill:none; stroke:rgb(255,0,0); stroke-width:4; stroke-linecap:butt; stroke-linejoin:miter; stroke-dasharray:0; opacity:1" points="3703.09,2976.97 3712.21,2919.66 3748.91,2957.55 3751.4,2941.92 3758.27,2932.33 3764.31,2927.95 3780.76,2925.23 3791.18,2926.89 3805.98,2934.59 3814.74,2946.67 3817.46,2963.13 3814.97,2978.76 3807.27,2993.56 3801.24,2997.94 3789.99,3001.49 " />
<polyline style="fill:none; stroke:rgb(0,255,255); stroke-width:4; stroke-linecap:butt; stroke-linejoin:miter; stroke-dasharray:0; opacity:1" points="3140.31,2653.8 3688.3,2741.06 " />
<polyline style="fill:none; stroke:rgb(0,255,255); stroke-width:4; stroke-linecap:butt; stroke-linejoin:miter; stroke-dasharray:0; opacity:1" points="3032.12,3333.39 3580.12,3420.66 " />
<polyline style="fill:none; stroke:rgb(255,255,0); stroke-width:4; stroke-linecap:butt; stroke-linejoin:miter; stroke-dasharray:0; opacity:1" points="3390.83,1070.61 3140.31,2653.8 " />
<polyline style="fill:none; stroke:rgb(0,255,255); stroke-width:4; stroke-linecap:butt; stroke-linejoin:miter; stroke-dasharray:0; opacity:1" points="3463.39,1082.1 3212.86,2665.28 " />
<polyline style="fill:none; stroke:rgb(255,0,0); stroke-width:4; stroke-linecap:butt; stroke-linejoin:miter; stroke-dasharray:0; opacity:1" points="3428.61,2037.58 3443.45,1943.78 " />
<polyline style="fill:none; stroke:rgb(255,0,0); stroke-width:4; stroke-linecap:butt; stroke-linejoin:miter; stroke-dasharray:0; opacity:1" points="3392.48,1860.93 3457.17,1924.59 3469.54,1846.42 " />
<polyline style="fill:none; stroke:rgb(255,0,0); stroke-width:4; stroke-linecap:butt; stroke-linejoin:miter; stroke-dasharray:0; opacity:1" points="3392.48,1860.93 3501.89,1878.25 " />
<polyline style="fill:none; stroke:rgb(255,0,0); stroke-width:4; stroke-linecap:butt; stroke-linejoin:miter; stroke-dasharray:0; opacity:1" points="3445.44,1762.48 3460.25,1770.17 3469.02,1782.24 3471.75,1798.7 3470.93,1803.91 3463.24,1818.72 3451.17,1827.49 3434.72,1830.22 3429.51,1829.4 3414.71,1821.71 3405.93,1809.64 3403.2,1793.19 3404.02,1787.97 3411.71,1773.17 3423.78,1764.39 3445.44,1762.48 3471.49,1766.61 3496.72,1775.94 3510.7,1788.84 3513.43,1805.29 3511.78,1815.72 3504.1,1830.52 3492.85,1834.09 " />
<polyline style="fill:none; stroke:rgb(0,255,255); stroke-width:4; stroke-linecap:butt; stroke-linejoin:miter; stroke-dasharray:0; opacity:1" points="3390.83,1070.61 3463.39,1082.1 " />
<polyline style="fill:none; stroke:rgb(0,255,255); stroke-width:4; stroke-linecap:butt; stroke-linejoin:miter; stroke-dasharray:0; opacity:1" points="3140.31,2653.8 3212.86,2665.28 " />
<polyline style="fill:none; stroke:rgb(0,255,0); stroke-width:4; stroke-linecap:butt; stroke-linejoin:miter; stroke-dasharray:0; opacity:1" points="5004.95,3466.65 5081.88,3333.39 5158.8,3466.65 " />
<polyline style="fill:none; stroke:rgb(0,255,0); stroke-width:4; stroke-linecap:butt; stroke-linejoin:miter; stroke-dasharray:0; opacity:1" points="4966.49,3466.65 5197.26,3466.65 " />
<polyline style="fill:none; stroke:rgb(0,255,0); stroke-width:4; stroke-linecap:butt; stroke-linejoin:miter; stroke-dasharray:0; opacity:1" points="4966.49,3512.81 5197.26,3512.81 " />
<polyline style="fill:none; stroke:rgb(255,0,0); stroke-width:4; stroke-linecap:butt; stroke-linejoin:miter; stroke-dasharray:0; opacity:1" points="5081.88,3887.35 5081.88,3444.18 " />
<polygon style="fill:rgb(255,0,0); fill-rule:evenodd; stroke:none; opacity:1" points="5026.49,3554.97 5081.88,3444.18 5137.26,3554.97 " />
<polyline style="fill:none; stroke:rgb(255,0,0); stroke-width:4; stroke-linecap:butt; stroke-linejoin:miter; stroke-dasharray:0; opacity:1" points="5026.49,3663 5137.26,3663 " />
<polygon style="fill:rgb(255,255,255); fill-rule:evenodd; stroke:none; opacity:1" points="5008.03,4032.44 5008.03,3610.37 4823.41,3610.37 4823.41,4032.44 " />
<polyline style="fill:none; stroke:rgb(255,0,0); stroke-width:4; stroke-linecap:butt; stroke-linejoin:miter; stroke-dasharray:0; opacity:1" points="4876.16,3969.13 4865.61,3974.41 4860.33,3990.23 4860.33,4000.78 4865.61,4016.61 4881.43,4027.16 4907.81,4032.44 4934.18,4032.44 4955.28,4027.16 4965.83,4016.61 4971.1,4000.78 4971.1,3995.51 4965.83,3979.68 4955.28,3969.13 4939.46,3963.85 4934.18,3963.85 4918.36,3969.13 4907.81,3979.68 4902.53,3995.51 4902.53,4000.78 4907.81,4016.61 4918.36,4027.16 4934.18,4032.44 " />
<polyline style="fill:none; stroke:rgb(255,0,0); stroke-width:4; stroke-linecap:butt; stroke-linejoin:miter; stroke-dasharray:0; opacity:1" points="4886.71,3942.75 4881.43,3942.75 4870.88,3937.47 4865.61,3932.2 4860.33,3921.65 4860.33,3900.54 4865.61,3889.99 4870.88,3884.72 4881.43,3879.44 4891.98,3879.44 4902.53,3884.72 4918.36,3895.27 4971.1,3948.03 4971.1,3874.16 " />
<polyline style="fill:none; stroke:rgb(255,0,0); stroke-width:4; stroke-linecap:butt; stroke-linejoin:miter; stroke-dasharray:0; opacity:1" points="4886.71,3853.06 4881.43,3853.06 4870.88,3847.78 4865.61,3842.51 4860.33,3831.96 4860.33,3810.85 4865.61,3800.3 4870.88,3795.03 4881.43,3789.75 4891.98,3789.75 4902.53,3795.03 4918.36,3805.58 4971.1,3858.34 4971.1,3784.47 " />
<polyline style="fill:none; stroke:rgb(255,0,0); stroke-width:4; stroke-linecap:butt; stroke-linejoin:miter; stroke-dasharray:0; opacity:1" points="4860.33,3705.34 4971.1,3705.34 " />
<polyline style="fill:none; stroke:rgb(255,0,0); stroke-width:4; stroke-linecap:butt; stroke-linejoin:miter; stroke-dasharray:0; opacity:1" points="4860.33,3705.34 4971.1,3631.47 " />
<polyline style="fill:none; stroke:rgb(255,0,0); stroke-width:4; stroke-linecap:butt; stroke-linejoin:miter; stroke-dasharray:0; opacity:1" points="4860.33,3631.47 4971.1,3631.47 " />
<polyline style="fill:none; stroke:rgb(0,255,0); stroke-width:4; stroke-linecap:butt; stroke-linejoin:miter; stroke-dasharray:0; opacity:1" points="2955.2,3466.65 3032.12,3333.39 3109.05,3466.65 " />
<polyline style="fill:none; stroke:rgb(0,255,0); stroke-width:4; stroke-linecap:butt; stroke-linejoin:miter; stroke-dasharray:0; opacity:1" points="2916.74,3466.65 3147.51,3466.65 " />
<polyline style="fill:none; stroke:rgb(0,255,0); stroke-width:4; stroke-linecap:butt; stroke-linejoin:miter; stroke-dasharray:0; opacity:1" points="2962.9,3466.65 2916.74,3512.81 " />
<polyline style="fill:none; stroke:rgb(0,255,0); stroke-width:4; stroke-linecap:butt; stroke-linejoin:miter; stroke-dasharray:0; opacity:1" points="3009.05,3466.65 2962.9,3512.81 " />
<polyline style="fill:none; stroke:rgb(0,255,0); stroke-width:4; stroke-linecap:butt; stroke-linejoin:miter; stroke-dasharray:0; opacity:1" points="3055.2,3466.65 3009.05,3512.81 " />
<polyline style="fill:none; stroke:rgb(0,255,0); stroke-width:4; stroke-linecap:butt; stroke-linejoin:miter; stroke-dasharray:0; opacity:1" points="3101.36,3466.65 3055.2,3512.81 " />
<polyline style="fill:none; stroke:rgb(0,255,0); stroke-width:4; stroke-linecap:butt; stroke-linejoin:miter; stroke-dasharray:0; opacity:1" points="3147.51,3466.65 3101.36,3512.81 " />
<polyline style="fill:none; stroke:rgb(255,0,0); stroke-width:4; stroke-linecap:butt; stroke-linejoin:miter; stroke-dasharray:0; opacity:1" points="3032.12,3887.35 3032.12,3444.18 " />
<polygon style="fill:rgb(255,0,0); fill-rule:evenodd; stroke:none; opacity:1" points="2976.74,3554.97 3032.12,3444.18 3087.51,3554.97 " />
<polyline style="fill:none; stroke:rgb(255,0,0); stroke-width:4; stroke-linecap:butt; stroke-linejoin:miter; stroke-dasharray:0; opacity:1" points="2976.74,3663 3087.51,3663 " />
<polygon style="fill:rgb(255,255,255); fill-rule:evenodd; stroke:none; opacity:1" points="2958.28,4037.72 2958.28,3610.37 2773.66,3610.37 2773.66,4037.72 " />
<polyline style="fill:none; stroke:rgb(255,0,0); stroke-width:4; stroke-linecap:butt; stroke-linejoin:miter; stroke-dasharray:0; opacity:1" points="2810.58,4027.16 2810.58,3969.13 2852.78,4000.78 2852.78,3984.96 2858.06,3974.41 2863.33,3969.13 2879.16,3963.85 2889.71,3963.85 2905.53,3969.13 2916.08,3979.68 2921.35,3995.51 2921.35,4011.34 2916.08,4027.16 2910.8,4032.44 2900.25,4037.72 " />
<polyline style="fill:none; stroke:rgb(255,0,0); stroke-width:4; stroke-linecap:butt; stroke-linejoin:miter; stroke-dasharray:0; opacity:1" points="2810.58,3874.16 2921.35,3926.92 " />
<polyline style="fill:none; stroke:rgb(255,0,0); stroke-width:4; stroke-linecap:butt; stroke-linejoin:miter; stroke-dasharray:0; opacity:1" points="2810.58,3948.03 2810.58,3874.16 " />
<polyline style="fill:none; stroke:rgb(255,0,0); stroke-width:4; stroke-linecap:butt; stroke-linejoin:miter; stroke-dasharray:0; opacity:1" points="2810.58,3831.96 2815.86,3847.78 2826.41,3853.06 2836.96,3853.06 2847.51,3847.78 2852.78,3837.23 2858.06,3816.13 2863.33,3800.3 2873.88,3789.75 2884.43,3784.47 2900.25,3784.47 2910.8,3789.75 2916.08,3795.03 2921.35,3810.85 2921.35,3831.96 2916.08,3847.78 2910.8,3853.06 2900.25,3858.34 2884.43,3858.34 2873.88,3853.06 2863.33,3842.51 2858.06,3826.68 2852.78,3805.58 2847.51,3795.03 2836.96,3789.75 2826.41,3789.75 2815.86,3795.03 2810.58,3810.85 2810.58,3831.96 " />
<polyline style="fill:none; stroke:rgb(255,0,0); stroke-width:4; stroke-linecap:butt; stroke-linejoin:miter; stroke-dasharray:0; opacity:1" points="2810.58,3705.34 2921.35,3705.34 " />
<polyline style="fill:none; stroke:rgb(255,0,0); stroke-width:4; stroke-linecap:butt; stroke-linejoin:miter; stroke-dasharray:0; opacity:1" points="2810.58,3705.34 2921.35,3631.47 " />
<polyline style="fill:none; stroke:rgb(255,0,0); stroke-width:4; stroke-linecap:butt; stroke-linejoin:miter; stroke-dasharray:0; opacity:1" points="2810.58,3631.47 2921.35,3631.47 " />
</g>
</g>
</svg>
